<?xml version="1.0" encoding="UTF-8" standalone="no"?>
<svg viewBox="0 0 400 280" version="1.1" id="svg339" sodipodi:docname="Algo_Errado.svg" width="400" height="280" inkscape:version="1.2 (dc2aedaf03, 2022-05-15)" inkscape:export-filename="Algo_Errado.png" inkscape:export-xdpi="96" inkscape:export-ydpi="96" xmlns:inkscape="http://www.inkscape.org/namespaces/inkscape" xmlns:sodipodi="http://sodipodi.sourceforge.net/DTD/sodipodi-0.dtd" xmlns="http://www.w3.org/2000/svg" xmlns:svg="http://www.w3.org/2000/svg" color="inherit">
  <sodipodi:namedview id="namedview341" pagecolor="#ffffff" bordercolor="#000000" borderopacity="0.25" inkscape:showpageshadow="2" inkscape:pageopacity="0.0" inkscape:pagecheckerboard="0" inkscape:deskcolor="#d1d1d1" showgrid="false" inkscape:zoom="2.004" inkscape:cx="240.26946" inkscape:cy="250" inkscape:window-width="3440" inkscape:window-height="1377" inkscape:window-x="1912" inkscape:window-y="-8" inkscape:window-maximized="1" inkscape:current-layer="svg339"/>
  <defs id="defs53">
    <clipPath id="freepik--clip-path--inject-61">
      <path d="m 136.74,252.74 c -2.91,-5.61 -4.13,-9.63 -4.13,-10.56 0,-1.84 4,-2.94 4,-2.94 6.24,-3.3 35.59,1.47 48.8,3.67 a 150.84,150.84 0 0 0 22.38,2.2 c 0,0 1.83,-1.46 4,-3.3 2.17,-1.84 12.47,-13.94 16.51,-15 4.04,-1.06 7.7,1.47 7.7,1.47 0,0 6.61,4 5.5,4.77 -1.11,0.77 -17.24,14.67 -21.28,17.24 -4.04,2.57 -12.47,1.47 -19.81,2.94 -6.32,1.26 -31.92,2.82 -37.79,3.3 a 21.33,21.33 0 0 1 -13.21,-1.1" style="fill:#ffffff;stroke:#263238;stroke-linecap:round;stroke-linejoin:round" id="path2"/>
    </clipPath>
    <clipPath id="freepik--clip-path-2--inject-61">
      <path d="m 281.65,285.36 a 7.81,7.81 0 0 1 6.92,-4.17 h 66.7 c 0,0 4.82,0 3.38,9.16 -1.44,9.16 -21.22,65.09 -26,82 -4.78,16.91 -5.79,52.55 -5.79,52.55 h -80 c 0,0 6.34,-85.23 34.79,-139.54 z" style="fill:#ffffff;stroke:#263238;stroke-linecap:round;stroke-linejoin:round" id="path5"/>
    </clipPath>
    <clipPath id="freepik--clip-path-3--inject-61">
      <path d="m 132.61,242.18 a 1.62,1.62 0 0 0 0,0.21 1.62,1.62 0 0 1 0,-0.21 z m 4.13,10.56 a 48.12,48.12 0 0 1 -4,-9.72 47.51,47.51 0 0 0 4,9.72 z m -4.11,-10.29 c 0,0.06 0,0.13 0,0.22 0.02,-0.09 0.01,-0.16 0,-0.22 z m 0.05,0.28 a 1.88,1.88 0 0 0 0.06,0.29 1.88,1.88 0 0 1 -0.06,-0.29 z m 4.06,10 a 91.6,91.6 0 0 0 13.84,19.52 c 13.21,14.31 51.37,51.74 55,54.31 3.63,2.57 2.57,9.9 0,17.24 -2.57,7.34 -12.11,18 -11.74,29.72 0.37,11.72 4,29.72 3.67,33.39 -0.33,3.67 -9.51,16.15 -9.51,16.15 h 94.66 c 0,0 -11.8,-15 -11.8,-20.13 0,-5.13 16.2,-70.86 16.93,-75.63 0.73,-4.77 -2.2,-8.07 -8.07,-8.44 -5.87,-0.37 -28.25,-5.14 -29.35,-8.81 -1.1,-3.67 5.87,-17.61 5.87,-17.61 l -22,1.1 c 0,0 -1.1,9.54 -2.57,11.38 -1.47,1.84 -3.67,-1.84 -8.81,-4.4 -5.14,-2.56 -15,-4.77 -18.71,-7.71 -3.71,-2.94 -38.89,-36 -38.89,-36" style="fill:#ffffff;stroke:#263238;stroke-linecap:round;stroke-linejoin:round" id="path8"/>
    </clipPath>
    <clipPath id="freepik--clip-path-4--inject-61">
      <path d="m 250.38,310.05 c -1.1,-3.66 5.87,-17.61 5.87,-17.61 l -22,1.1 c 0,0 -1.1,9.54 -2.57,11.38 -1.47,1.84 -3.67,-1.84 -8.81,-4.4 -0.39,-0.2 -0.82,-0.39 -1.26,-0.58 l -1.33,20.91 c 0,0 1.93,20.25 25.07,16.4 9.37,-1.56 19.37,-9.92 28,-19.32 -8.88,-1.63 -22.13,-5.07 -22.97,-7.88 z" style="fill:#ffffff;stroke:#263238;stroke-linecap:round;stroke-linejoin:round" id="path11"/>
    </clipPath>
    <clipPath id="freepik--clip-path-5--inject-61">
      <path d="m 231.67,304.92 c -1.47,1.83 -3.67,-1.84 -8.81,-4.4 -3.24,-1.63 -8.4,-3.11 -12.67,-4.71 -1.21,-2.87 -2.81,-6.61 -3.84,-8.87 -1.83,-4 -4.77,-1.47 -4.77,-1.47 a 21.4,21.4 0 0 1 -3.67,-5.87 c -1.83,-4 -4.77,-3.67 -8.8,-4.4 -4.03,-0.73 -12.48,-8.44 -12.48,-8.44 0,0 -3.95,-3 -5.58,-4.49 -1.9,3.74 -6.45,10.32 -16.29,14.43 15.69,16.39 47.52,47.53 50.86,49.87 3.67,2.56 2.57,9.9 0,17.24 -2.57,7.34 -12.11,18 -11.74,29.72 0.37,11.72 4,29.72 3.67,33.39 -0.33,3.27 -7.65,13.52 -9.24,15.72 l 3.73,0.42 h 19.42 c -0.11,-9.84 -0.1,-50 6.63,-66 7.71,-18.39 13.58,-52.14 13.58,-52.14 z" fill="#009DCD" style="stroke:#263238;stroke-linecap:round;stroke-linejoin:round" id="path14"/>
    </clipPath>
    <clipPath id="freepik--clip-path-6--inject-61">
      <path d="m 231.93,303.64 c 0,0 -4.56,-1.4 -7.37,1.06 -2.81,2.46 -7,15.08 -9.47,28.77 a 38.26,38.26 0 0 0 3,23.55 c 0,0 5.77,-15.13 7.52,-22.5 1.75,-7.37 6.32,-30.88 6.32,-30.88 z" fill="#009DCD" style="stroke:#263238;stroke-linecap:round;stroke-linejoin:round" id="path17"/>
    </clipPath>
    <clipPath id="freepik--clip-path-7--inject-61">
      <path d="m 239.89,423.06 h 42.78 c 0,0 -11.8,-15 -11.8,-20.13 0,-5.13 16.2,-70.86 16.93,-75.63 0.73,-4.77 -2.2,-8.07 -8.07,-8.44 -5.87,-0.37 -28.25,-5.14 -29.35,-8.81 0,0 -8.44,29.72 -11.37,49.9 -2.52,17.31 0.09,53.23 0.88,63.11 z" fill="#009DCD" style="stroke:#263238;stroke-linecap:round;stroke-linejoin:round" id="path20"/>
    </clipPath>
    <clipPath id="freepik--clip-path-8--inject-61">
      <path d="m 250.38,310.05 c 0,0 -11.32,36 -11.37,49.9 0,0 16.08,-19.47 18.18,-33.15 2.1,-13.68 -6.81,-16.75 -6.81,-16.75 z" fill="#009DCD" style="stroke:#263238;stroke-linecap:round;stroke-linejoin:round" id="path23"/>
    </clipPath>
    <clipPath id="freepik--clip-path-9--inject-61">
      <path d="m 371.23,416.29 c 0,0 8.29,0.34 13.72,1.12 a 99.2,99.2 0 0 0 10.92,0.87 c 0,0 -3,-6.06 -6.2,-7.77 -3.2,-1.71 -9,-4.77 -13.86,-4.09 -4.86,0.68 -11.81,5.58 -11.23,7.14 0.58,1.56 3.17,2.26 6.65,2.73 z" style="fill:#ffffff;stroke:#263238;stroke-linecap:round;stroke-linejoin:round" id="path26"/>
    </clipPath>
    <clipPath id="freepik--clip-path-10--inject-61">
      <path d="m 385,413.81 c 0,0 6.57,-3.41 8.21,-3.36 1.64,0.05 12.54,7.42 12,8.6 a 3.14,3.14 0 0 1 -3.44,1.28 c -1.21,-0.57 -8.55,-3.69 -8.55,-3.69 l -4.8,1.13 z" style="fill:#ffffff;stroke:#263238;stroke-linecap:round;stroke-linejoin:round" id="path29"/>
    </clipPath>
    <clipPath id="freepik--clip-path-11--inject-61">
      <path d="m 380.31,408.2 c 0,0 8.76,-0.28 10.5,0.6 1.74,0.88 9.6,14.36 8.42,15.34 -1.18,0.98 -4.44,0.69 -4.34,-0.4 0.1,-1.09 -7.24,-8.31 -7.24,-8.31 l -5.71,-1.25 z" style="fill:#ffffff;stroke:#263238;stroke-linecap:round;stroke-linejoin:round" id="path32"/>
    </clipPath>
    <clipPath id="freepik--clip-path-12--inject-61">
      <path d="m 375.12,406.39 c 0,0 8.87,-0.29 10.63,0.61 1.76,0.9 9.72,14.53 8.52,15.53 -1.2,1 -4.48,0.69 -4.38,-0.41 0.1,-1.1 -7.33,-8.41 -7.33,-8.41 l -5.78,-1.27 z" style="fill:#ffffff;stroke:#263238;stroke-linecap:round;stroke-linejoin:round" id="path35"/>
    </clipPath>
    <clipPath id="freepik--clip-path-13--inject-61">
      <path d="m 274.27,355.57 c 6.42,9.89 19.31,34.95 23.07,37.77 5.87,4.4 45.11,15.08 48.89,18 3.78,2.92 3.52,5.85 7.1,6.92 3.58,1.07 17,4.14 22.12,4.62 5.12,0.48 2.83,-2.69 2.83,-2.69 l -8.73,-6 7.61,-1.88 c 0,0 7.63,9.18 9.06,9.68 1.43,0.5 3.95,0 3.79,-1.13 -0.28,-1.81 -8.42,-16.62 -11.31,-17.25 -2.89,-0.63 -20.43,1.8 -20.43,1.8 0,0 -36.79,-24.81 -37.45,-25.69 0,0 -2.2,-6.24 -4,-8.81 -1.8,-2.57 -2.94,-1.83 -2.94,-1.83 0,0 0.74,-3.31 -0.36,-4.41 l -5.87,-5.87 -0.21,0.28 c -1,-2 -2,-4.28 -3.1,-6.88 -3.07,-7.23 -13.94,-27.52 -15.77,-30.45 -1.37,-2.19 -12.85,-3.76 -18.67,-4.42" fill="#009DCD" style="stroke:#263238;stroke-linecap:round;stroke-linejoin:round" id="path38"/>
    </clipPath>
    <clipPath id="freepik--clip-path-14--inject-61">
      <path d="m 346.23,411.35 c 3.79,2.93 3.52,5.85 7.1,6.92 3.58,1.07 17,4.14 22.12,4.62 5.12,0.48 2.83,-2.69 2.83,-2.69 l -8.73,-6 7.61,-1.88 c 0,0 7.63,9.18 9.06,9.68 1.43,0.5 4.15,0.68 3.79,-1.13 -0.7,-3.5 -8.42,-16.62 -11.31,-17.25 -2.89,-0.63 -20.43,1.8 -20.43,1.8 0,0 -33.51,-23 -37.18,-25.49 -14.23,1.37 -21,8.82 -23.85,13.29 l 0.1,0.08 c 5.87,4.44 45.11,15.12 48.89,18.05 z" style="fill:#ffffff;stroke:#263238;stroke-linecap:round;stroke-linejoin:round" id="path41"/>
    </clipPath>
    <clipPath id="freepik--clip-path-15--inject-61">
      <path d="m 257.85,236.73 -30.12,12.57 a 44.41,44.41 0 0 1 -3.87,15.31 c -3.56,7.53 -1.48,21.78 1.94,29.47 3.42,7.69 18.49,4.68 24,3.72 a 59.4,59.4 0 0 0 10.93,-3.19 10.16,10.16 0 0 0 9.76,-1.36 c 0,0 -16.12,-45.25 -12.64,-56.52 z" style="fill:#ffffff;stroke:#263238;stroke-linecap:round;stroke-linejoin:round" id="path44"/>
    </clipPath>
    <clipPath id="freepik--clip-path-16--inject-61">
      <path d="m 158,417.38 a 17.69,17.69 0 0 1 -6.3,-1.5 2.18,2.18 0 1 1 1.72,-4 c 2,0.85 4.59,1.38 5.28,1.08 1.27,-1.42 3.22,-10 0.7,-14.14 -0.57,-0.92 -1.1,-1.09 -1.45,-1.13 -1.43,-0.2 -3.55,1.27 -4.3,2 a 2.1858865,2.1858865 0 1 1 -3,-3.18 c 0.39,-0.38 4,-3.63 7.85,-3.11 a 6.28,6.28 0 0 1 4.58,3.16 c 3.71,6.05 1.17,17.56 -1.68,19.84 a 5.38,5.38 0 0 1 -3.4,0.98 z" style="fill:#ffffff;stroke:#263238;stroke-linecap:round;stroke-linejoin:round" id="path47"/>
    </clipPath>
    <clipPath id="freepik--clip-path-17--inject-61">
      <rect x="130.13" y="391.57999" width="24.049999" height="31.92" style="fill:#ffffff;stroke:#263238;stroke-linecap:round;stroke-linejoin:round" id="rect50"/>
    </clipPath>
  </defs>
  <g id="g782" transform="translate(-50.099991,-171.52374)">
    <g id="freepik--Character--inject-61">
      <path d="m 136.74,252.74 c -2.91,-5.61 -4.13,-9.63 -4.13,-10.56 0,-1.84 4,-2.94 4,-2.94 6.24,-3.3 35.59,1.47 48.8,3.67 a 150.84,150.84 0 0 0 22.38,2.2 c 0,0 1.83,-1.46 4,-3.3 2.17,-1.84 12.47,-13.94 16.51,-15 4.04,-1.06 7.7,1.47 7.7,1.47 0,0 6.61,4 5.5,4.77 -1.11,0.77 -17.24,14.67 -21.28,17.24 -4.04,2.57 -12.47,1.47 -19.81,2.94 -6.32,1.26 -31.92,2.82 -37.79,3.3 a 21.33,21.33 0 0 1 -13.21,-1.1" style="fill:#ffffff" id="path60"/>
      <g clip-path="url(#freepik--clip-path--inject-61)" id="g66">
        <path d="m 236.07,228.24 c 0,0 -3.67,-2.57 -7.7,-1.47 -4.03,1.1 -14.31,13.21 -16.51,15 -2.2,1.79 -4,3.3 -4,3.3 a 150.84,150.84 0 0 1 -22.38,-2.2 c -13.21,-2.2 -42.56,-7 -48.8,-3.67 0,0 -4,1.1 -4,2.94 a 12.62,12.62 0 0 0 0.79,3 l 0.55,0.2 c 0,0 7.33,-0.77 23.15,-0.39 15.82,0.38 52.41,2.55 54.76,3.4 1,0.38 8.09,-1.22 15.95,-4 6,-4.89 13.05,-11 13.76,-11.43 1.04,-0.65 -5.57,-4.68 -5.57,-4.68 z" fill="#009DCD" id="path62"/>
        <path d="m 236.07,228.24 c 0,0 -3.67,-2.57 -7.7,-1.47 -4.03,1.1 -14.31,13.21 -16.51,15 -2.2,1.79 -4,3.3 -4,3.3 a 150.84,150.84 0 0 1 -22.38,-2.2 c -13.21,-2.2 -42.56,-7 -48.8,-3.67 0,0 -4,1.1 -4,2.94 a 12.62,12.62 0 0 0 0.79,3 l 0.55,0.2 c 0,0 7.33,-0.77 23.15,-0.39 15.82,0.38 52.41,2.55 54.76,3.4 1,0.38 8.09,-1.22 15.95,-4 6,-4.89 13.05,-11 13.76,-11.43 1.04,-0.65 -5.57,-4.68 -5.57,-4.68 z" style="opacity:0.5;fill:#ffffff" id="path64"/>
      </g>
      <path d="m 136.74,252.74 c -2.91,-5.61 -4.13,-9.63 -4.13,-10.56 0,-1.84 4,-2.94 4,-2.94 6.24,-3.3 35.59,1.47 48.8,3.67 a 150.84,150.84 0 0 0 22.38,2.2 c 0,0 1.83,-1.46 4,-3.3 2.17,-1.84 12.47,-13.94 16.51,-15 4.04,-1.06 7.7,1.47 7.7,1.47 0,0 6.61,4 5.5,4.77 -1.11,0.77 -17.24,14.67 -21.28,17.24 -4.04,2.57 -12.47,1.47 -19.81,2.94 -6.32,1.26 -31.92,2.82 -37.79,3.3 a 21.33,21.33 0 0 1 -13.21,-1.1" style="fill:none;stroke:#263238;stroke-linecap:round;stroke-linejoin:round" id="path68"/>
      <path d="m 281.65,285.36 a 7.81,7.81 0 0 1 6.92,-4.17 h 66.7 c 0,0 4.82,0 3.38,9.16 -1.44,9.16 -21.22,65.09 -26,82 -4.78,16.91 -5.79,52.55 -5.79,52.55 h -80 c 0,0 6.34,-85.23 34.79,-139.54 z" style="fill:#ffffff" id="path70"/>
      <g clip-path="url(#freepik--clip-path-2--inject-61)" id="g74">
        <path d="m 311.69,281.19 h -23.12 a 7.81,7.81 0 0 0 -6.92,4.17 c -28.45,54.31 -34.86,139.51 -34.86,139.51 h 35.88 l 8.85,-33.61 36.9,7.61 c 0.26,-2.82 0.56,-5.69 0.91,-8.52 l -0.81,-9 c 0,0 -7.56,-7.95 -9.94,-9.94 -2.38,-1.99 -0.8,-5.58 -1.2,-21.09 -0.4,-15.51 -14.32,-26.66 -19.5,-36.21 -5.18,-9.55 2.79,-15.52 9.95,-25.07 2.55,-3.45 3.59,-5.99 3.86,-7.85 z" style="opacity:0.16" id="path72"/>
      </g>
      <path d="m 281.65,285.36 a 7.81,7.81 0 0 1 6.92,-4.17 h 66.7 c 0,0 4.82,0 3.38,9.16 -1.44,9.16 -21.22,65.09 -26,82 -4.78,16.91 -5.79,52.55 -5.79,52.55 h -80 c 0,0 6.34,-85.23 34.79,-139.54 z" style="fill:none;stroke:#263238;stroke-linecap:round;stroke-linejoin:round" id="path76"/>
      <path d="m 343.7,297.1 c -6.74,15.73 -21,78 -23.32,127.77 h 6.44 c 0,0 1,-35.68 5.79,-52.55 4.79,-16.87 24.59,-72.81 26,-82 1.41,-9.19 -3.38,-9.16 -3.38,-9.16 0,0 -6.12,3.33 -11.53,15.94 z" style="fill:#263238;stroke:#263238;stroke-linecap:round;stroke-linejoin:round" id="path78"/>
      <path d="m 226.53,265.66 c 0,0 -10.64,-6.24 -14.67,-17.24 -4.03,-11 31.55,-28.62 47,-29.72 15.45,-1.1 19.81,2.93 29,18.71 9.19,15.78 15.41,37.42 10.64,48.06 -4.77,10.64 -12.84,13.21 -7,22 5.84,8.79 22.38,33.75 21.28,45.49 -1.1,11.74 -12.47,22 -29,23.12 -16.53,1.12 -38.53,-8.81 -56.87,-25 -18.34,-16.19 -13.58,-40 -7,-47.7 6.58,-7.7 16.51,-10.64 17.24,-18.34 0.73,-7.7 -10.62,-19.38 -10.62,-19.38 z" style="fill:#263238;stroke:#263238;stroke-linecap:round;stroke-linejoin:round" id="path80"/>
      <path d="m 271.88,248.25 c 5.65,10.52 12.72,24.61 14.93,33.12 3.86,14.9 -16,24.28 -10.49,31.45" style="fill:none;stroke:#ffffff;stroke-linecap:round;stroke-linejoin:round" id="path82"/>
      <path d="m 264.18,234.47 c 0,0 2.2,3.75 5.24,9.27" style="fill:none;stroke:#ffffff;stroke-linecap:round;stroke-linejoin:round" id="path84"/>
      <path d="m 293.82,260.94 a 27.08,27.08 0 0 1 1.26,6.08" style="fill:none;stroke:#ffffff;stroke-linecap:round;stroke-linejoin:round" id="path86"/>
      <path d="m 268,229 c 0,0 17.38,12.84 24.32,28.21" style="fill:none;stroke:#ffffff;stroke-linecap:round;stroke-linejoin:round" id="path88"/>
      <path d="m 243.88,238.63 c -12.41,3.48 -30.26,9.13 -28.81,12.39" style="fill:none;stroke:#ffffff;stroke-linecap:round;stroke-linejoin:round" id="path90"/>
      <path d="m 255.35,235.57 c 0,0 -2.65,0.66 -6.6,1.72" style="fill:none;stroke:#ffffff;stroke-linecap:round;stroke-linejoin:round" id="path92"/>
      <path d="m 240,229.09 a 64,64 0 0 1 22,-2.9" style="fill:none;stroke:#ffffff;stroke-linecap:round;stroke-linejoin:round" id="path94"/>
      <path d="m 234.94,231.16 a 27.72,27.72 0 0 1 3.48,-1.52" style="fill:none;stroke:#ffffff;stroke-linecap:round;stroke-linejoin:round" id="path96"/>
      <path d="m 132.61,242.18 a 1.62,1.62 0 0 0 0,0.21 1.62,1.62 0 0 1 0,-0.21 z m 4.13,10.56 a 48.12,48.12 0 0 1 -4,-9.72 47.51,47.51 0 0 0 4,9.72 z m -4.11,-10.29 c 0,0.06 0,0.13 0,0.22 0.02,-0.09 0.01,-0.16 0,-0.22 z m 0.05,0.28 a 1.88,1.88 0 0 0 0.06,0.29 1.88,1.88 0 0 1 -0.06,-0.29 z m 4.06,10 a 91.6,91.6 0 0 0 13.84,19.52 c 13.21,14.31 51.37,51.74 55,54.31 3.63,2.57 2.57,9.9 0,17.24 -2.57,7.34 -12.11,18 -11.74,29.72 0.37,11.72 4,29.72 3.67,33.39 -0.33,3.67 -9.51,16.15 -9.51,16.15 h 94.66 c 0,0 -11.8,-15 -11.8,-20.13 0,-5.13 16.2,-70.86 16.93,-75.63 0.73,-4.77 -2.2,-8.07 -8.07,-8.44 -5.87,-0.37 -28.25,-5.14 -29.35,-8.81 -1.1,-3.67 5.87,-17.61 5.87,-17.61 l -22,1.1 c 0,0 -1.1,9.54 -2.57,11.38 -1.47,1.84 -3.67,-1.84 -8.81,-4.4 -5.14,-2.56 -15,-4.77 -18.71,-7.71 -3.71,-2.94 -38.89,-36 -38.89,-36" style="fill:#ffffff" id="path98"/>
      <g clip-path="url(#freepik--clip-path-3--inject-61)" id="g114">
        <path d="m 209.77,295.64 c 1.83,3.2 3.66,6.09 3.66,6.09 0,0 6.17,3.47 7.71,3.47 1.54,0 10.8,5 10.8,5 0,0 7.72,-1.93 5,-8.49 a 20.72,20.72 0 0 0 -3.22,-4.62 c -0.46,2.91 -1.2,6.72 -2.07,7.81 -1.47,1.83 -3.67,-1.84 -8.81,-4.4 -3.33,-1.66 -8.72,-3.18 -13.07,-4.86 z" fill="#009DCD" id="path100"/>
        <path d="M 190.93,280.79 C 179.6,270.3 165.26,256.85 165.26,256.85 l -8.34,-1.2 -1,0.56 c 0,0 23.54,20.83 28.55,23.15 a 15.65,15.65 0 0 0 6.46,1.43 z" fill="#009DCD" id="path102"/>
        <path d="m 202.8,291.65 -0.9,-0.8 c 0.46,0.76 0.72,1.24 0.72,1.24 z" fill="#009DCD" id="path104"/>
        <g style="opacity:0.5" id="g112">
          <path d="m 209.77,295.64 c 1.83,3.2 3.66,6.09 3.66,6.09 0,0 6.17,3.47 7.71,3.47 1.54,0 10.8,5 10.8,5 0,0 7.72,-1.93 5,-8.49 a 20.72,20.72 0 0 0 -3.22,-4.62 c -0.46,2.91 -1.2,6.72 -2.07,7.81 -1.47,1.83 -3.67,-1.84 -8.81,-4.4 -3.33,-1.66 -8.72,-3.18 -13.07,-4.86 z" style="fill:#ffffff" id="path106"/>
          <path d="M 190.93,280.79 C 179.6,270.3 165.26,256.85 165.26,256.85 l -8.34,-1.2 -1,0.56 c 0,0 23.54,20.83 28.55,23.15 a 15.65,15.65 0 0 0 6.46,1.43 z" style="fill:#ffffff" id="path108"/>
          <path d="m 202.8,291.65 -0.9,-0.8 c 0.46,0.76 0.72,1.24 0.72,1.24 z" style="fill:#ffffff" id="path110"/>
        </g>
      </g>
      <path d="m 132.61,242.18 a 1.62,1.62 0 0 0 0,0.21 1.62,1.62 0 0 1 0,-0.21 z m 4.13,10.56 a 48.12,48.12 0 0 1 -4,-9.72 47.51,47.51 0 0 0 4,9.72 z m -4.11,-10.29 c 0,0.06 0,0.13 0,0.22 0.02,-0.09 0.01,-0.16 0,-0.22 z m 0.05,0.28 a 1.88,1.88 0 0 0 0.06,0.29 1.88,1.88 0 0 1 -0.06,-0.29 z m 4.06,10 a 91.6,91.6 0 0 0 13.84,19.52 c 13.21,14.31 51.37,51.74 55,54.31 3.63,2.57 2.57,9.9 0,17.24 -2.57,7.34 -12.11,18 -11.74,29.72 0.37,11.72 4,29.72 3.67,33.39 -0.33,3.67 -9.51,16.15 -9.51,16.15 h 94.66 c 0,0 -11.8,-15 -11.8,-20.13 0,-5.13 16.2,-70.86 16.93,-75.63 0.73,-4.77 -2.2,-8.07 -8.07,-8.44 -5.87,-0.37 -28.25,-5.14 -29.35,-8.81 -1.1,-3.67 5.87,-17.61 5.87,-17.61 l -22,1.1 c 0,0 -1.1,9.54 -2.57,11.38 -1.47,1.84 -3.67,-1.84 -8.81,-4.4 -5.14,-2.56 -15,-4.77 -18.71,-7.71 -3.71,-2.94 -38.89,-36 -38.89,-36" style="fill:none;stroke:#263238;stroke-linecap:round;stroke-linejoin:round" id="path116"/>
      <path d="m 165.26,256.85 c 0,0 -11.72,0.22 -18.26,-5.17" style="fill:none;stroke:#263238;stroke-linecap:round;stroke-linejoin:round" id="path118"/>
      <path d="m 250.38,310.05 c -1.1,-3.66 5.87,-17.61 5.87,-17.61 l -22,1.1 c 0,0 -1.1,9.54 -2.57,11.38 -1.47,1.84 -3.67,-1.84 -8.81,-4.4 -0.39,-0.2 -0.82,-0.39 -1.26,-0.58 l -1.33,20.91 c 0,0 1.93,20.25 25.07,16.4 9.37,-1.56 19.37,-9.92 28,-19.32 -8.88,-1.63 -22.13,-5.07 -22.97,-7.88 z" style="fill:#ffffff" id="path120"/>
      <g clip-path="url(#freepik--clip-path-4--inject-61)" id="g126">
        <path d="m 249.76,295.21 c 0,0 -1.33,7.46 -2.4,15.71 -1.07,8.25 -1.86,14.39 -1.86,14.39 l 4.88,-15.26 5.5,-16.17 c 0,0 -5.32,0 -6.12,1.33 z" fill="#009DCD" id="path122"/>
        <path d="m 249.76,295.21 c 0,0 -1.33,7.46 -2.4,15.71 -1.07,8.25 -1.86,14.39 -1.86,14.39 l 4.88,-15.26 5.5,-16.17 c 0,0 -5.32,0 -6.12,1.33 z" style="opacity:0.5;fill:#ffffff" id="path124"/>
      </g>
      <path d="m 250.38,310.05 c -1.1,-3.66 5.87,-17.61 5.87,-17.61 l -22,1.1 c 0,0 -1.1,9.54 -2.57,11.38 -1.47,1.84 -3.67,-1.84 -8.81,-4.4 -0.39,-0.2 -0.82,-0.39 -1.26,-0.58 l -1.33,20.91 c 0,0 1.93,20.25 25.07,16.4 9.37,-1.56 19.37,-9.92 28,-19.32 -8.88,-1.63 -22.13,-5.07 -22.97,-7.88 z" style="fill:none;stroke:#263238;stroke-linecap:round;stroke-linejoin:round" id="path128"/>
      <path d="m 231.67,304.92 c -1.47,1.83 -3.67,-1.84 -8.81,-4.4 -3.24,-1.63 -8.4,-3.11 -12.67,-4.71 -1.21,-2.87 -2.81,-6.61 -3.84,-8.87 -1.83,-4 -4.77,-1.47 -4.77,-1.47 a 21.4,21.4 0 0 1 -3.67,-5.87 c -1.83,-4 -4.77,-3.67 -8.8,-4.4 -4.03,-0.73 -12.48,-8.44 -12.48,-8.44 0,0 -3.95,-3 -5.58,-4.49 -1.9,3.74 -6.45,10.32 -16.29,14.43 15.69,16.39 47.52,47.53 50.86,49.87 3.67,2.56 2.57,9.9 0,17.24 -2.57,7.34 -12.11,18 -11.74,29.72 0.37,11.72 4,29.72 3.67,33.39 -0.33,3.27 -7.65,13.52 -9.24,15.72 l 3.73,0.42 h 19.42 c -0.11,-9.84 -0.1,-50 6.63,-66 7.71,-18.39 13.58,-52.14 13.58,-52.14 z" fill="#009DCD" id="path130"/>
      <g clip-path="url(#freepik--clip-path-5--inject-61)" id="g134">
        <path d="m 222.86,300.52 c -3.24,-1.63 -8.4,-3.11 -12.67,-4.71 -1.21,-2.87 -2.81,-6.61 -3.84,-8.87 -1.83,-4 -4.77,-1.47 -4.77,-1.47 a 21.4,21.4 0 0 1 -3.67,-5.87 c -1.83,-4 -4.77,-3.67 -8.8,-4.4 -4.03,-0.73 -12.48,-8.44 -12.48,-8.44 0,0 -3.95,-3 -5.58,-4.49 a 27.13,27.13 0 0 1 -2.89,4.49 c 6.56,5.55 13.8,11.43 16.33,12.6 5,2.31 6.17,0.38 10,2.7 3.83,2.32 8.1,10 8.1,10 0,0 2.32,-6.18 4.25,-1.93 1.93,4.25 6.56,11.57 6.56,11.57 0,0 6.17,3.47 7.71,3.47 1.21,0 7.14,3.08 9.66,4.41 0.56,-2.93 0.87,-4.69 0.87,-4.69 -1.44,1.86 -3.64,-1.81 -8.78,-4.37 z" style="opacity:0.16" id="path132"/>
      </g>
      <path d="m 231.67,304.92 c -1.47,1.83 -3.67,-1.84 -8.81,-4.4 -3.24,-1.63 -8.4,-3.11 -12.67,-4.71 -1.21,-2.87 -2.81,-6.61 -3.84,-8.87 -1.83,-4 -4.77,-1.47 -4.77,-1.47 a 21.4,21.4 0 0 1 -3.67,-5.87 c -1.83,-4 -4.77,-3.67 -8.8,-4.4 -4.03,-0.73 -12.48,-8.44 -12.48,-8.44 0,0 -3.95,-3 -5.58,-4.49 -1.9,3.74 -6.45,10.32 -16.29,14.43 15.69,16.39 47.52,47.53 50.86,49.87 3.67,2.56 2.57,9.9 0,17.24 -2.57,7.34 -12.11,18 -11.74,29.72 0.37,11.72 4,29.72 3.67,33.39 -0.33,3.27 -7.65,13.52 -9.24,15.72 l 3.73,0.42 h 19.42 c -0.11,-9.84 -0.1,-50 6.63,-66 7.71,-18.39 13.58,-52.14 13.58,-52.14 z" style="fill:none;stroke:#263238;stroke-linecap:round;stroke-linejoin:round" id="path136"/>
      <path d="m 231.93,303.64 c 0,0 -4.56,-1.4 -7.37,1.06 -2.81,2.46 -7,15.08 -9.47,28.77 a 38.26,38.26 0 0 0 3,23.55 c 0,0 5.77,-15.13 7.52,-22.5 1.75,-7.37 6.32,-30.88 6.32,-30.88 z" fill="#009DCD" id="path138"/>
      <g clip-path="url(#freepik--clip-path-6--inject-61)" id="g142">
        <path d="m 223.18,305.87 c 0,0 3.3,-0.8 4.66,-0.34 a 13.3,13.3 0 0 1 3.18,1.93 l 0.91,-3.82 a 7.38,7.38 0 0 0 -4.43,-0.73 c -2.27,0.46 -4.32,2.96 -4.32,2.96 z" style="opacity:0.16" id="path140"/>
      </g>
      <path d="m 231.93,303.64 c 0,0 -4.56,-1.4 -7.37,1.06 -2.81,2.46 -7,15.08 -9.47,28.77 a 38.26,38.26 0 0 0 3,23.55 c 0,0 5.77,-15.13 7.52,-22.5 1.75,-7.37 6.32,-30.88 6.32,-30.88 z" style="fill:none;stroke:#263238;stroke-linecap:round;stroke-linejoin:round" id="path144"/>
      <polyline points="201.22 304.84 207.09 328.69 193.88 298.6" style="fill:none;stroke:#263238;stroke-linecap:round;stroke-linejoin:round" id="polyline146"/>
      <path d="m 239.89,423.06 h 42.78 c 0,0 -11.8,-15 -11.8,-20.13 0,-5.13 16.2,-70.86 16.93,-75.63 0.73,-4.77 -2.2,-8.07 -8.07,-8.44 -5.87,-0.37 -28.25,-5.14 -29.35,-8.81 0,0 -8.44,29.72 -11.37,49.9 -2.52,17.31 0.09,53.23 0.88,63.11 z" fill="#009DCD" id="path148"/>
      <g clip-path="url(#freepik--clip-path-7--inject-61)" id="g152">
        <path d="m 279.73,318.86 c -4.81,-0.3 -20.7,-3.56 -26.89,-6.74 l 2.25,5.2 a 45.11,45.11 0 0 0 13,4.52 c 7.45,1.33 14.38,1.07 18.91,7.73 l 0.22,0.33 c 0.28,-1.28 0.47,-2.18 0.53,-2.6 0.79,-4.77 -2.15,-8.07 -8.02,-8.44 z" style="opacity:0.16" id="path150"/>
      </g>
      <path d="m 239.89,423.06 h 42.78 c 0,0 -11.8,-15 -11.8,-20.13 0,-5.13 16.2,-70.86 16.93,-75.63 0.73,-4.77 -2.2,-8.07 -8.07,-8.44 -5.87,-0.37 -28.25,-5.14 -29.35,-8.81 0,0 -8.44,29.72 -11.37,49.9 -2.52,17.31 0.09,53.23 0.88,63.11 z" style="fill:none;stroke:#263238;stroke-linecap:round;stroke-linejoin:round" id="path154"/>
      <path d="m 250.38,310.05 c 0,0 -11.32,36 -11.37,49.9 0,0 16.08,-19.47 18.18,-33.15 2.1,-13.68 -6.81,-16.75 -6.81,-16.75 z" fill="#009DCD" id="path156"/>
      <g clip-path="url(#freepik--clip-path-8--inject-61)" id="g160">
        <path d="m 248.43,314.65 a 10.48,10.48 0 0 1 8.79,4.26 c 0,0 -2.22,-6.53 -6.84,-8.86 z" style="opacity:0.16" id="path158"/>
      </g>
      <path d="m 250.38,310.05 c 0,0 -11.32,36 -11.37,49.9 0,0 16.08,-19.47 18.18,-33.15 2.1,-13.68 -6.81,-16.75 -6.81,-16.75 z" style="fill:none;stroke:#263238;stroke-linecap:round;stroke-linejoin:round" id="path162"/>
      <path d="m 371.23,416.29 c 0,0 8.29,0.34 13.72,1.12 a 99.2,99.2 0 0 0 10.92,0.87 c 0,0 -3,-6.06 -6.2,-7.77 -3.2,-1.71 -9,-4.77 -13.86,-4.09 -4.86,0.68 -11.81,5.58 -11.23,7.14 0.58,1.56 3.17,2.26 6.65,2.73 z" style="fill:#ffffff" id="path164"/>
      <g clip-path="url(#freepik--clip-path-9--inject-61)" id="g170">
        <path d="m 371.23,416.29 c 0,0 8.29,0.34 13.72,1.12 a 99.2,99.2 0 0 0 10.92,0.87 c 0,0 -3,-6.06 -6.2,-7.77 -3.2,-1.71 -9,-4.77 -13.86,-4.09 -4.86,0.68 -11.81,5.58 -11.23,7.14 0.58,1.56 3.17,2.26 6.65,2.73 z" fill="#009DCD" id="path166"/>
        <path d="m 371.23,416.29 c 0,0 8.29,0.34 13.72,1.12 a 99.2,99.2 0 0 0 10.92,0.87 c 0,0 -3,-6.06 -6.2,-7.77 -3.2,-1.71 -9,-4.77 -13.86,-4.09 -4.86,0.68 -11.81,5.58 -11.23,7.14 0.58,1.56 3.17,2.26 6.65,2.73 z" style="opacity:0.5;fill:#ffffff" id="path168"/>
      </g>
      <path d="m 371.23,416.29 c 0,0 8.29,0.34 13.72,1.12 a 99.2,99.2 0 0 0 10.92,0.87 c 0,0 -3,-6.06 -6.2,-7.77 -3.2,-1.71 -9,-4.77 -13.86,-4.09 -4.86,0.68 -11.81,5.58 -11.23,7.14 0.58,1.56 3.17,2.26 6.65,2.73 z" style="fill:none;stroke:#263238;stroke-linecap:round;stroke-linejoin:round" id="path172"/>
      <path d="m 385,413.81 c 0,0 6.57,-3.41 8.21,-3.36 1.64,0.05 12.54,7.42 12,8.6 a 3.14,3.14 0 0 1 -3.44,1.28 c -1.21,-0.57 -8.55,-3.69 -8.55,-3.69 l -4.8,1.13 z" style="fill:#ffffff" id="path174"/>
      <g clip-path="url(#freepik--clip-path-10--inject-61)" id="g180">
        <path d="m 385,413.81 c 0,0 6.57,-3.41 8.21,-3.36 1.64,0.05 12.54,7.42 12,8.6 -0.54,1.18 -3.12,2.14 -3.44,1.28 -0.32,-0.86 -8.55,-3.69 -8.55,-3.69 l -4.8,1.13 z" fill="#009DCD" id="path176"/>
        <path d="m 385,413.81 c 0,0 6.57,-3.41 8.21,-3.36 1.64,0.05 12.54,7.42 12,8.6 -0.54,1.18 -3.12,2.14 -3.44,1.28 -0.32,-0.86 -8.55,-3.69 -8.55,-3.69 l -4.8,1.13 z" style="opacity:0.5;fill:#ffffff" id="path178"/>
      </g>
      <path d="m 385,413.81 c 0,0 6.57,-3.41 8.21,-3.36 1.64,0.05 12.54,7.42 12,8.6 a 3.14,3.14 0 0 1 -3.44,1.28 c -1.21,-0.57 -8.55,-3.69 -8.55,-3.69 l -4.8,1.13 z" style="fill:none;stroke:#263238;stroke-linecap:round;stroke-linejoin:round" id="path182"/>
      <path d="m 380.31,408.2 c 0,0 8.76,-0.28 10.5,0.6 1.74,0.88 9.6,14.36 8.42,15.34 -1.18,0.98 -4.44,0.69 -4.34,-0.4 0.1,-1.09 -7.24,-8.31 -7.24,-8.31 l -5.71,-1.25 z" style="fill:#ffffff" id="path184"/>
      <g clip-path="url(#freepik--clip-path-11--inject-61)" id="g190">
        <path d="m 380.31,408.2 c 0,0 8.76,-0.28 10.5,0.6 1.74,0.88 9.6,14.36 8.42,15.34 -1.18,0.98 -4.44,0.69 -4.34,-0.4 0.1,-1.09 -7.24,-8.31 -7.24,-8.31 l -5.71,-1.25 z" fill="#009DCD" id="path186"/>
        <path d="m 380.31,408.2 c 0,0 8.76,-0.28 10.5,0.6 1.74,0.88 9.6,14.36 8.42,15.34 -1.18,0.98 -4.44,0.69 -4.34,-0.4 0.1,-1.09 -7.24,-8.31 -7.24,-8.31 l -5.71,-1.25 z" style="opacity:0.5;fill:#ffffff" id="path188"/>
      </g>
      <path d="m 380.31,408.2 c 0,0 8.76,-0.28 10.5,0.6 1.74,0.88 9.6,14.36 8.42,15.34 -1.18,0.98 -4.44,0.69 -4.34,-0.4 0.1,-1.09 -7.24,-8.31 -7.24,-8.31 l -5.71,-1.25 z" style="fill:none;stroke:#263238;stroke-linecap:round;stroke-linejoin:round" id="path192"/>
      <path d="m 375.12,406.39 c 0,0 8.87,-0.29 10.63,0.61 1.76,0.9 9.72,14.53 8.52,15.53 -1.2,1 -4.48,0.69 -4.38,-0.41 0.1,-1.1 -7.33,-8.41 -7.33,-8.41 l -5.78,-1.27 z" style="fill:#ffffff" id="path194"/>
      <g clip-path="url(#freepik--clip-path-12--inject-61)" id="g200">
        <path d="m 375.12,406.39 c 0,0 8.87,-0.29 10.63,0.61 1.76,0.9 9.72,14.53 8.52,15.53 -1.2,1 -4.48,0.69 -4.38,-0.41 0.1,-1.1 -7.33,-8.41 -7.33,-8.41 l -5.78,-1.27 z" fill="#009DCD" id="path196"/>
        <path d="m 375.12,406.39 c 0,0 8.87,-0.29 10.63,0.61 1.76,0.9 9.72,14.53 8.52,15.53 -1.2,1 -4.48,0.69 -4.38,-0.41 0.1,-1.1 -7.33,-8.41 -7.33,-8.41 l -5.78,-1.27 z" style="opacity:0.5;fill:#ffffff" id="path198"/>
      </g>
      <path d="m 375.12,406.39 c 0,0 8.87,-0.29 10.63,0.61 1.76,0.9 9.72,14.53 8.52,15.53 -1.2,1 -4.48,0.69 -4.38,-0.41 0.1,-1.1 -7.33,-8.41 -7.33,-8.41 l -5.78,-1.27 z" style="fill:none;stroke:#263238;stroke-linecap:round;stroke-linejoin:round" id="path202"/>
      <path d="m 274.27,355.57 c 6.42,9.89 19.31,34.95 23.07,37.77 5.87,4.4 45.11,15.08 48.89,18 3.78,2.92 3.52,5.85 7.1,6.92 3.58,1.07 17,4.14 22.12,4.62 5.12,0.48 2.83,-2.69 2.83,-2.69 l -8.73,-6 7.61,-1.88 c 0,0 7.63,9.18 9.06,9.68 1.43,0.5 3.95,0 3.79,-1.13 -0.28,-1.81 -8.42,-16.62 -11.31,-17.25 -2.89,-0.63 -20.43,1.8 -20.43,1.8 0,0 -36.79,-24.81 -37.45,-25.69 0,0 -2.2,-6.24 -4,-8.81 -1.8,-2.57 -2.94,-1.83 -2.94,-1.83 0,0 0.74,-3.31 -0.36,-4.41 l -5.87,-5.87 -0.21,0.28 c -1,-2 -2,-4.28 -3.1,-6.88 -3.07,-7.23 -13.94,-27.52 -15.77,-30.45 -1.37,-2.19 -12.85,-3.76 -18.67,-4.42" fill="#009DCD" id="path204"/>
      <g clip-path="url(#freepik--clip-path-13--inject-61)" id="g208">
        <path d="m 299.83,356.2 c 4.8,4.26 3.2,4.26 2.13,8 -1.07,3.74 0.8,-1.33 5.33,-1.06 4.53,0.27 3.2,6.12 2.66,7.19 -0.54,1.07 5.6,2.4 4.53,4.79 -1.07,2.39 -7.19,5.86 -10.65,9.33 -3.46,3.47 9.05,-5.6 13.31,-5.86 1.3,-0.09 2.37,0.08 3.27,0.06 a 42,42 0 0 0 -3.62,-7.68 c -1.84,-2.57 -2.94,-1.83 -2.94,-1.83 0,0 0.74,-3.31 -0.36,-4.41 l -5.87,-5.87 -0.21,0.28 c -1,-2 -2,-4.28 -3.1,-6.88 -3.07,-7.23 -13.94,-27.52 -15.77,-30.45 -1.37,-2.19 -12.85,-3.76 -18.67,-4.42 l 0.53,4.63 0.13,0.1 c 0,0 7.19,1.33 9.59,1.6 2.4,0.27 5.33,2.39 5.06,4 -0.27,1.61 -7.19,8.79 -5.06,9.33 2.13,0.54 4.53,-5.33 6.93,-4.53 2.4,0.8 7.95,19.42 12.78,23.68 z" style="opacity:0.16" id="path206"/>
      </g>
      <path d="m 274.27,355.57 c 6.42,9.89 19.31,34.95 23.07,37.77 5.87,4.4 45.11,15.08 48.89,18 3.78,2.92 3.52,5.85 7.1,6.92 3.58,1.07 17,4.14 22.12,4.62 5.12,0.48 2.83,-2.69 2.83,-2.69 l -8.73,-6 7.61,-1.88 c 0,0 7.63,9.18 9.06,9.68 1.43,0.5 3.95,0 3.79,-1.13 -0.28,-1.81 -8.42,-16.62 -11.31,-17.25 -2.89,-0.63 -20.43,1.8 -20.43,1.8 0,0 -36.79,-24.81 -37.45,-25.69 0,0 -2.2,-6.24 -4,-8.81 -1.8,-2.57 -2.94,-1.83 -2.94,-1.83 0,0 0.74,-3.31 -0.36,-4.41 l -5.87,-5.87 -0.21,0.28 c -1,-2 -2,-4.28 -3.1,-6.88 -3.07,-7.23 -13.94,-27.52 -15.77,-30.45 -1.37,-2.19 -12.85,-3.76 -18.67,-4.42" style="fill:none;stroke:#263238;stroke-linecap:round;stroke-linejoin:round" id="path210"/>
      <path d="m 274.37,342 c -0.27,0.9 -0.5,1.8 -0.68,2.72" style="fill:none;stroke:#263238;stroke-linecap:round;stroke-linejoin:round" id="path212"/>
      <path d="m 284.09,325.45 a 53.53,53.53 0 0 0 -7.88,11.85" style="fill:none;stroke:#263238;stroke-linecap:round;stroke-linejoin:round" id="path214"/>
      <path d="m 298.78,382.23 c 2.7,-4 7,-9.07 11.74,-10.52" style="fill:none;stroke:#263238;stroke-linecap:round;stroke-linejoin:round" id="path216"/>
      <path d="m 295.79,387.15 c 0,0 0.48,-0.94 1.34,-2.36" style="fill:none;stroke:#263238;stroke-linecap:round;stroke-linejoin:round" id="path218"/>
      <path d="m 295.79,380.83 c 0,0 4.91,-12.28 9.82,-15.44 4.91,-3.16 2.1,3.16 2.1,3.16" style="fill:none;stroke:#263238;stroke-linecap:round;stroke-linejoin:round" id="path220"/>
      <path d="m 346.23,411.35 c 3.79,2.93 3.52,5.85 7.1,6.92 3.58,1.07 17,4.14 22.12,4.62 5.12,0.48 2.83,-2.69 2.83,-2.69 l -8.73,-6 7.61,-1.88 c 0,0 7.63,9.18 9.06,9.68 1.43,0.5 4.15,0.68 3.79,-1.13 -0.7,-3.5 -8.42,-16.62 -11.31,-17.25 -2.89,-0.63 -20.43,1.8 -20.43,1.8 0,0 -33.51,-23 -37.18,-25.49 -14.23,1.37 -21,8.82 -23.85,13.29 l 0.1,0.08 c 5.87,4.44 45.11,15.12 48.89,18.05 z" style="fill:#ffffff" id="path222"/>
      <g clip-path="url(#freepik--clip-path-14--inject-61)" id="g228">
        <path d="m 390,420.91 c -1.82,-4.45 -8.42,-16.62 -11.31,-17.25 -2.89,-0.63 -20.43,1.8 -20.43,1.8 0,0 -33.51,-23 -37.18,-25.49 a 37.26,37.26 0 0 0 -10.87,2.63 c 5.29,3 40.55,23 45,23.89 4.72,1 20.47,-1.59 23.24,0.27 1.76,1.18 7,9.49 10.54,15.39 1.01,-0.15 1.38,-0.34 1.01,-1.24 z" fill="#009DCD" id="path224"/>
        <path d="m 390,420.91 c -2.84,-6.37 -8.42,-16.62 -11.31,-17.25 -2.89,-0.63 -20.43,1.8 -20.43,1.8 0,0 -33.51,-23 -37.18,-25.49 a 37.26,37.26 0 0 0 -10.87,2.63 c 5.29,3 40.55,23 45,23.89 4.72,1 20.47,-1.59 23.24,0.27 1.76,1.18 7,9.49 10.54,15.39 1.01,-0.15 1.41,-0.35 1.01,-1.24 z" style="opacity:0.5;fill:#ffffff" id="path226"/>
      </g>
      <path d="m 346.23,411.35 c 3.79,2.93 3.52,5.85 7.1,6.92 3.58,1.07 17,4.14 22.12,4.62 5.12,0.48 2.83,-2.69 2.83,-2.69 l -8.73,-6 7.61,-1.88 c 0,0 7.63,9.18 9.06,9.68 1.43,0.5 4.15,0.68 3.79,-1.13 -0.7,-3.5 -8.42,-16.62 -11.31,-17.25 -2.89,-0.63 -20.43,1.8 -20.43,1.8 0,0 -33.51,-23 -37.18,-25.49 -14.23,1.37 -21,8.82 -23.85,13.29 l 0.1,0.08 c 5.87,4.44 45.11,15.12 48.89,18.05 z" style="fill:none;stroke:#263238;stroke-linecap:round;stroke-linejoin:round" id="path230"/>
      <path d="m 257.85,236.73 -30.12,12.57 a 44.41,44.41 0 0 1 -3.87,15.31 c -3.56,7.53 -1.48,21.78 1.94,29.47 3.42,7.69 18.49,4.68 24,3.72 a 59.4,59.4 0 0 0 10.93,-3.19 10.16,10.16 0 0 0 9.76,-1.36 c 0,0 -16.12,-45.25 -12.64,-56.52 z" style="fill:#ffffff" id="path232"/>
      <g clip-path="url(#freepik--clip-path-15--inject-61)" id="g238">
        <path d="m 257.85,236.73 -30.12,12.57 a 44.41,44.41 0 0 1 -3.87,15.31 c -3.56,7.53 -1.48,21.78 1.94,29.47 a 7,7 0 0 0 2.65,3 v -0.58 c 0,0 -5.59,-13.85 -4.53,-21.84 1.06,-7.99 5.6,-12 6.13,-17.05 0.53,-5.05 0.26,-7.45 10.39,-11.18 10.13,-3.73 14.38,-7.19 15.44,-3.47 1.06,3.72 5.33,28.24 8.26,34.1 2.93,5.86 2.66,12 -1.86,14.65 a 63.55,63.55 0 0 1 -14.57,6.42 l 2.13,-0.37 a 59.4,59.4 0 0 0 10.93,-3.19 10.16,10.16 0 0 0 9.76,-1.36 c 0,0 -16.16,-45.21 -12.68,-56.48 z" fill="#009DCD" id="path234"/>
        <path d="m 257.85,236.73 -30.12,12.57 a 44.41,44.41 0 0 1 -3.87,15.31 c -3.56,7.53 -1.48,21.78 1.94,29.47 a 7,7 0 0 0 2.65,3 v -0.58 c 0,0 -5.59,-13.85 -4.53,-21.84 1.06,-7.99 5.6,-12 6.13,-17.05 0.53,-5.05 0.26,-7.45 10.39,-11.18 10.13,-3.73 14.38,-7.19 15.44,-3.47 1.06,3.72 5.33,28.24 8.26,34.1 2.93,5.86 2.66,12 -1.86,14.65 a 63.55,63.55 0 0 1 -14.57,6.42 l 2.13,-0.37 a 59.4,59.4 0 0 0 10.93,-3.19 10.16,10.16 0 0 0 9.76,-1.36 c 0,0 -16.16,-45.21 -12.68,-56.48 z" style="opacity:0.5;fill:#ffffff" id="path236"/>
      </g>
      <path d="m 257.85,236.73 -30.12,12.57 a 44.41,44.41 0 0 1 -3.87,15.31 c -3.56,7.53 -1.48,21.78 1.94,29.47 3.42,7.69 18.49,4.68 24,3.72 a 59.4,59.4 0 0 0 10.93,-3.19 10.16,10.16 0 0 0 9.76,-1.36 c 0,0 -16.12,-45.25 -12.64,-56.52 z" style="fill:none;stroke:#263238;stroke-linecap:round;stroke-linejoin:round" id="path240"/>
      <path d="m 242.63,256.44 a 15.65,15.65 0 0 1 -0.65,5.24 c -0.8,2 -8.35,9.86 -8.12,10.71 0.23,0.85 0.91,3.58 2.25,3.84" style="fill:none;stroke:#263238;stroke-linecap:round;stroke-linejoin:round" id="path242"/>
      <path d="m 251,263.47 c 1.05,-2.1 4.5,-0.05 4.45,4.68" style="fill:none;stroke:#263238;stroke-linecap:round;stroke-linejoin:round" id="path244"/>
      <path d="m 233.9,257.29 c 0,0 2.94,-1.29 5.57,3.47" style="fill:none;stroke:#263238;stroke-linecap:round;stroke-linejoin:round" id="path246"/>
      <path d="m 246.82,270.4 a 14.56,14.56 0 0 1 9.13,3.83" style="fill:none;stroke:#263238;stroke-width:0.5px;stroke-linecap:round;stroke-linejoin:round" id="path248"/>
      <path d="m 230.35,264.15 a 19.37,19.37 0 0 1 5.1,1.41" style="fill:none;stroke:#263238;stroke-width:0.5px;stroke-linecap:round;stroke-linejoin:round" id="path250"/>
      <path d="m 242.3,252 a 5.67,5.67 0 0 0 -5.06,-0.12 c -2.69,1.29 -4.34,2.71 -4.16,1.06 0.18,-1.65 3.34,-3.47 4.29,-3.71 0.95,-0.24 5.2,-0.9 4.93,2.77 z" style="fill:#263238" id="path252"/>
      <path d="m 249.84,248.27 a 22.87,22.87 0 0 1 6.5,8.46 c 2,5 3.58,-0.46 2,-3.73 -1.58,-3.27 -6.15,-6.75 -8.5,-4.73 z" style="fill:#263238" id="path254"/>
      <path d="m 270.93,301.8 c 0,2.33 -1.32,4.22 -2.94,4.22 -1.62,0 -2.93,-1.89 -2.93,-4.22 0,-2.33 1.31,-8.26 2.93,-8.26 1.62,0 2.94,5.93 2.94,8.26 z" fill="#009DCD" style="stroke:#263238;stroke-linecap:round;stroke-linejoin:round" id="path256"/>
      <path d="m 251.26,262.56 a 6.11,6.11 0 0 0 -0.27,0.94 c -0.29,1.48 -0.58,4.57 0,4.7 0.58,0.13 2,-2.76 2.25,-4.24 a 5.65,5.65 0 0 0 0.1,-0.88 18.23,18.23 0 0 0 -2.08,-0.52 z" style="fill:#263238" id="path258"/>
      <path d="m 234.2,257 a 5.82,5.82 0 0 0 -0.21,0.8 c -0.3,1.48 -0.29,4.73 0.34,4.85 0.63,0.12 1.66,-2.92 1.95,-4.4 a 6.15,6.15 0 0 0 0.12,-1.09 5.67,5.67 0 0 0 -2.2,-0.16 z" style="fill:#263238" id="path260"/>
      <path d="m 251,263.52 1,-1.86 a 7.23,7.23 0 0 1 4.08,2.36" style="fill:none;stroke:#263238;stroke-width:0.75px;stroke-linecap:round;stroke-linejoin:round" id="path262"/>
      <path d="m 234.2,257 1,-1.17 c 0,0 0.43,-0.21 2.79,0.86" style="fill:none;stroke:#263238;stroke-width:0.75px;stroke-linecap:round;stroke-linejoin:round" id="path264"/>
      <path d="m 230.41,284.12 c 0,0 1.68,-3.09 3.93,-3.09 2.25,0 3.93,5.05 3.93,5.05" style="fill:none;stroke:#263238;stroke-linecap:round;stroke-linejoin:round" id="path266"/>
    </g>
    <g id="freepik--Mug--inject-61">
      <path d="m 158,417.38 a 17.69,17.69 0 0 1 -6.3,-1.5 2.18,2.18 0 1 1 1.72,-4 c 2,0.85 4.59,1.38 5.28,1.08 1.27,-1.42 3.22,-10 0.7,-14.14 -0.57,-0.92 -1.1,-1.09 -1.45,-1.13 -1.43,-0.2 -3.55,1.27 -4.3,2 a 2.1858865,2.1858865 0 1 1 -3,-3.18 c 0.39,-0.38 4,-3.63 7.85,-3.11 a 6.28,6.28 0 0 1 4.58,3.16 c 3.71,6.05 1.17,17.56 -1.68,19.84 a 5.38,5.38 0 0 1 -3.4,0.98 z" style="fill:#ffffff" id="path269"/>
      <g clip-path="url(#freepik--clip-path-16--inject-61)" id="g275">
        <path d="m 160.93,398.16 a 4.12,4.12 0 0 0 -3,-2.44 c -2.5,-0.4 -4.85,2.11 -5.11,2.39 a 1.88,1.88 0 0 0 -0.21,2.09 2.16,2.16 0 0 0 1.05,-0.54 c 0.75,-0.7 2.87,-2.17 4.3,-2 0.35,0 0.88,0.21 1.45,1.13 2.52,4.1 0.57,12.72 -0.7,14.14 -0.69,0.3 -3.27,-0.23 -5.28,-1.08 a 2.19,2.19 0 0 0 -0.78,-0.17 1.65,1.65 0 0 0 0.84,1.33 10,10 0 0 0 4.09,1.16 3.15,3.15 0 0 0 2.23,-0.78 c 1.88,-1.73 3.54,-10.58 1.12,-15.23 z" fill="#009DCD" id="path271"/>
        <path d="m 160.93,398.16 a 4.12,4.12 0 0 0 -3,-2.44 c -2.5,-0.4 -4.85,2.11 -5.11,2.39 a 1.88,1.88 0 0 0 -0.21,2.09 2.16,2.16 0 0 0 1.05,-0.54 c 0.75,-0.7 2.87,-2.17 4.3,-2 0.35,0 0.88,0.21 1.45,1.13 2.52,4.1 0.57,12.72 -0.7,14.14 -0.69,0.3 -3.27,-0.23 -5.28,-1.08 a 2.19,2.19 0 0 0 -0.78,-0.17 1.65,1.65 0 0 0 0.84,1.33 10,10 0 0 0 4.09,1.16 3.15,3.15 0 0 0 2.23,-0.78 c 1.88,-1.73 3.54,-10.58 1.12,-15.23 z" style="opacity:0.5;fill:#ffffff" id="path273"/>
      </g>
      <path d="m 158,417.38 a 17.69,17.69 0 0 1 -6.3,-1.5 2.18,2.18 0 1 1 1.72,-4 c 2,0.85 4.59,1.38 5.28,1.08 1.27,-1.42 3.22,-10 0.7,-14.14 -0.57,-0.92 -1.1,-1.09 -1.45,-1.13 -1.43,-0.2 -3.55,1.27 -4.3,2 a 2.1858865,2.1858865 0 1 1 -3,-3.18 c 0.39,-0.38 4,-3.63 7.85,-3.11 a 6.28,6.28 0 0 1 4.58,3.16 c 3.71,6.05 1.17,17.56 -1.68,19.84 a 5.38,5.38 0 0 1 -3.4,0.98 z" style="fill:none;stroke:#263238;stroke-linecap:round;stroke-linejoin:round" id="path277"/>
      <rect x="130.13" y="391.57999" width="24.049999" height="31.92" style="fill:#ffffff" id="rect279"/>
      <g clip-path="url(#freepik--clip-path-17--inject-61)" id="g285">
        <rect x="130.13" y="391.57999" width="9.8500004" height="31.92" fill="#009DCD" id="rect281"/>
        <rect x="130.13" y="391.57999" width="9.8500004" height="31.92" style="opacity:0.5;fill:#ffffff" id="rect283"/>
      </g>
      <rect x="130.13" y="391.57999" width="24.049999" height="31.92" style="fill:none;stroke:#263238;stroke-linecap:round;stroke-linejoin:round" id="rect287"/>
    </g>
    <g id="freepik--Device--inject-61">
      <path d="M 286.34,423.06 H 183.6 l -3.35,-56.48 A 3.84,3.84 0 0 1 184,362.1 h 101.9 a 3.84,3.84 0 0 1 3.79,4.48 z" style="fill:#263238;stroke:#263238;stroke-linecap:round;stroke-linejoin:round" id="path290"/>
      <path d="m 188.66,363.45 h 96.5 a 3.74,3.74 0 0 1 3.73,4.34" style="fill:none;stroke:#ffffff;stroke-linecap:round;stroke-linejoin:round" id="path292"/>
      <path d="m 181,366.9 a 3.77,3.77 0 0 1 3.78,-3.45" style="fill:none;stroke:#ffffff;stroke-linecap:round;stroke-linejoin:round" id="path294"/>
      <rect x="183.17" y="417.56" width="103.6" height="5.5" style="fill:#ffffff;stroke:#263238;stroke-linecap:round;stroke-linejoin:round" id="rect296"/>
      <ellipse cx="234.60001" cy="392.79999" rx="7.3400002" ry="4.4000001" style="fill:#ffffff;stroke:#263238;stroke-linecap:round;stroke-linejoin:round" id="ellipse298"/>
    </g>
    <g id="freepik--Table--inject-61">
      <rect x="57.169998" y="422.41" width="385.85999" height="9.3699999" style="fill:#263238" id="rect301"/>
    </g>
    <g id="g648" transform="matrix(0.38189734,0,0,0.38189734,249.93599,162.62517)" style="stroke-width:2.6185">
      <rect x="146.02" y="75" width="208.28999" height="129.17" rx="11.33" fill="#009DCD" style="stroke-width:2.6185" id="rect304"/>
      <circle cx="228.15271" cy="156.93172" r="30.879999" transform="rotate(-9.13)" style="fill:#263238;stroke-width:2.6185" id="circle306"/>
      <path d="m 249.93,124.45 -10.29,13.21 a 3.93,3.93 0 0 1 -3.26,1.82 3.39,3.39 0 0 1 -2.4,-0.95 3.09,3.09 0 0 1 -1,-2.37 4.64,4.64 0 0 1 1,-2.73 l 11.73,-14.51 -11,-14.52 a 4,4 0 0 1 -0.8,-2.36 3.68,3.68 0 0 1 1.17,-2.71 3.73,3.73 0 0 1 2.7,-1.15 3.87,3.87 0 0 1 3.22,1.82 l 9.94,13.09 10,-12.87 a 4.25,4.25 0 0 1 3.43,-2.07 3.15,3.15 0 0 1 2.31,1 3.18,3.18 0 0 1 1,2.31 3.5,3.5 0 0 1 -0.76,2.13 l -11.77,15.06 11.37,15 a 3.87,3.87 0 0 1 0.85,2.36 3.43,3.43 0 0 1 -1.19,2.62 3.94,3.94 0 0 1 -2.73,1.1 3.88,3.88 0 0 1 -3.24,-1.82 z" style="fill:#ffffff;stroke-width:2.6185" id="path308"/>
      <path d="M 309,181.8 H 191.29 a 9,9 0 0 1 -9,-9 v 0 a 9,9 0 0 1 9,-9 H 309 a 9,9 0 0 1 9,9 v 0 a 9,9 0 0 1 -9,9 z" style="fill:#ffffff;stroke-width:2.6185" id="path310"/>
      <line x1="321.45999" y1="197.82001" x2="333.69" y2="197.82001" style="fill:none;stroke:#ffffff;stroke-width:7.85551px;stroke-linecap:round;stroke-linejoin:round" id="line332"/>
      <path d="M 151.83,107.77 V 189 a 8.87,8.87 0 0 0 8.87,8.87 h 149.15" style="fill:none;stroke:#ffffff;stroke-width:7.85551px;stroke-linecap:round;stroke-linejoin:round" id="path334"/>
      <line x1="151.83" y1="86.230003" x2="151.83" y2="98.410004" style="fill:none;stroke:#ffffff;stroke-width:7.85551px;stroke-linecap:round;stroke-linejoin:round" id="line336"/>
    </g>
  </g>
</svg>
