<svg xmlns="http://www.w3.org/2000/svg" viewBox="0 0 400 280" version="1.1" width="400" height="280">
        <g id="g6457" transform="translate(-93.867392,-78.717645)">
          <rect x="468.52994" y="219.69434" width="1.2090223" height="14.411546" fill="#407bff" strokeWidth='1.20902228' id="rect91" />
          <rect x="468.52994" y="178.41832" width="1.2090223" height="31.192774" fill="#407bff" strokeWidth='1.20902228' id="rect93" />
          <rect x="153.65216" y="153.22231" width="307.1763" height="173.22871" rx="7.1499996" fill="#e0e0e0" strokeWidth='1.20902228' id="rect95" ry="7.1499996" />
          <rect
             x="158.06508"
             y="148.80936"
             width="307.1763"
             height="173.22871"
             rx="7.1499996"
             fill="#ffffff"
             strokeWidth='1.20902228'
             id="rect97"
             ry="7.1499996" />
          <path
             d="M 456.60897,322.59423 H 166.7096 a 9.2611108,9.2611108 0 0 1 -9.24902,-9.24902 V 157.38133 a 9.2611108,9.2611108 0 0 1 9.24902,-9.24902 h 289.89937 a 9.2611108,9.2611108 0 0 1 9.24902,9.24902 v 155.96388 a 9.2611108,9.2611108 0 0 1 -9.24902,9.24902 z M 166.7096,149.41388 a 8.0520885,8.0520885 0 0 0 -8.04,8.03999 v 155.96388 a 8.0520885,8.0520885 0 0 0 8.04,8.04 h 289.89937 a 8.0520885,8.0520885 0 0 0 8.03999,-8.04 V 157.45387 a 8.0520885,8.0520885 0 0 0 -8.03999,-8.03999 z"
             fill="#407bff"
             strokeWidth='1.20902228'
             id="path99"/>
          <path
             d="M 293.35469,224.04682 H 181.62893 a 4.5096532,4.5096532 0 0 1 -4.49756,-4.50965 v -15.42713 a 4.5096532,4.5096532 0 0 1 4.49756,-4.50965 h 111.72576 a 4.5096532,4.5096532 0 0 1 4.49756,4.50965 v 15.39086 a 4.5096532,4.5096532 0 0 1 -4.49756,4.54592 z M 181.62893,200.84568 a 3.3006309,3.3006309 0 0 0 -3.28854,3.30064 v 15.39085 a 3.2885407,3.2885407 0 0 0 3.28854,3.30063 h 111.72576 a 3.2885407,3.2885407 0 0 0 3.28854,-3.30063 v -15.42713 a 3.3006309,3.3006309 0 0 0 -3.28854,-3.30063 z"
             fill="#e0e0e0"
             strokeWidth='1.20902228'
             id="path101"/>
          <path
             d="M 352.20989,256.67833 H 181.62893 a 4.5096532,4.5096532 0 0 1 -4.49756,-4.49756 v -15.42712 a 4.5096532,4.5096532 0 0 1 4.49756,-4.50966 h 170.58096 a 4.5096532,4.5096532 0 0 1 4.49756,4.50966 v 15.40294 a 4.5096532,4.5096532 0 0 1 -4.49756,4.52174 z M 181.62893,233.4772 a 3.3006309,3.3006309 0 0 0 -3.28854,3.30063 v 15.40294 a 3.2885407,3.2885407 0 0 0 3.28854,3.28854 h 170.58096 a 3.2885407,3.2885407 0 0 0 3.28854,-3.28854 v -15.42712 a 3.3006309,3.3006309 0 0 0 -3.28854,-3.30063 z"
             fill="#e0e0e0"
             strokeWidth='1.20902228'
             id="path103"/>
          <path
             d="m 182.92259,249.32748 a 0.60451115,0.60451115 0 0 1 -0.60451,-0.60451 v -8.46316 a 0.60451115,0.60451115 0 0 1 1.20902,0 v 8.46316 a 0.60451115,0.60451115 0 0 1 -0.60451,0.60451 z"
             fill="#e0e0e0"
             strokeWidth='1.20902228'
             id="path105"/>
          <path
             d="M 427.27809,224.04682 H 315.55233 a 4.5096532,4.5096532 0 0 1 -4.49756,-4.50965 v -15.42713 a 4.5096532,4.5096532 0 0 1 4.49756,-4.50965 h 111.72576 a 4.5096532,4.5096532 0 0 1 4.49756,4.50965 v 15.39086 a 4.5096532,4.5096532 0 0 1 -4.49756,4.54592 z M 315.55233,200.84568 a 3.3006309,3.3006309 0 0 0 -3.28854,3.30064 v 15.39085 a 3.2885407,3.2885407 0 0 0 3.28854,3.30063 h 111.72576 a 3.2885407,3.2885407 0 0 0 3.28854,-3.30063 v -15.42713 a 3.3006309,3.3006309 0 0 0 -3.28854,-3.30063 z"
             fill="#e0e0e0"
             strokeWidth='1.20902228'
             id="path107"/>
          <path
             d="m 254.31536,178.41832 h -71.6104 a 4.9811719,4.9811719 0 0 1 -4.96908,-4.96908 v 0 a 4.9811719,4.9811719 0 0 1 4.96908,-4.96908 h 71.6104 a 4.9811719,4.9811719 0 0 1 4.96908,4.96908 v 0 a 4.9811719,4.9811719 0 0 1 -4.96908,4.96908 z"
             fill="#407bff"
             strokeWidth='1.20902228'
             opacity="0.2"
             id="path109"/>
          <path
             d="m 274.02242,274.23334 h -77.59505 a 1.9948868,1.9948868 0 0 1 -1.9828,-1.9828 v 0 a 1.9948868,1.9948868 0 0 1 1.9828,-1.9828 h 77.59505 a 1.9827966,1.9827966 0 0 1 1.97071,1.9828 v 0 a 1.9827966,1.9827966 0 0 1 -1.97071,1.9828 z"
             fill="#407bff"
             strokeWidth='1.20902228'
             opacity="0.2"
             id="path111"/>
          <circle
             cx="181.73775"
             cy="272.2868"
             r="4.001864"
             fill="#407bff"
             strokeWidth='1.20902228'
             id="circle113" />
          <path
             d="m 316.84599,216.69597 a 0.60451115,0.60451115 0 0 1 -0.60451,-0.60451 v -8.46316 a 0.60451115,0.60451115 0 0 1 1.20902,0 v 8.46316 a 0.60451115,0.60451115 0 0 1 -0.60451,0.60451 z"
             fill="#e0e0e0"
             strokeWidth='1.20902228'
             id="path115"/>
          <path
             d="m 182.92259,216.69597 a 0.60451115,0.60451115 0 0 1 -0.60451,-0.60451 v -8.46316 a 0.60451115,0.60451115 0 0 1 1.20902,0 v 8.46316 a 0.60451115,0.60451115 0 0 1 -0.60451,0.60451 z"
             fill="#e0e0e0"
             strokeWidth='1.20902228'
             id="path117"/>
          <rect
             x="330.56839"
             y="288.63281"
             width="54.551086"
             height="20.674282"
             rx="5.4599991"
             fill="#407bff"
             strokeWidth='1.20902228'
             id="rect169"
             ry="5.4599991" />
          <rect
             x="396.58099"
             y="288.63281"
             width="54.551086"
             height="20.674282"
             rx="5.4599991"
             fill="#407bff"
             strokeWidth='1.20902228'
             opacity="0.2"
             id="rect171"
             ry="5.4599991" />
          <g
             transform="matrix(0.59176024,0,0,0.59176024,59.549031,71.242439)"
             id="g6386">
            <path
               id="path174"
               fill="#263238"
               strokeWidth='1.20902228'
               d="m 141.02997,53.199881 c -8.93468,-1.342015 -10.96584,6.770525 -20.35994,6.444089 a 12.211125,12.211125 0 0 0 6.38364,7.012329 c 0,0 -7.45967,5.41642 -5.79122,13.516869 5.83958,-6.613352 13.68613,-0.338526 22.23392,-0.592421 17.73636,-0.55615 24.18045,-8.765411 18.00234,-15.814011 5.70659,-7.254134 -9.90189,-11.098825 -9.53918,-16.478974 -1.78936,0.834225 -1.7289,4.267849 -1.7289,4.267849 a 18.304598,18.304598 0 0 1 -11.99351,-3.965594 c -0.22971,3.312722 2.79285,5.609864 2.79285,5.609864 z" />
            <path
               id="path176"
               fill="#263238"
               strokeWidth='1.20902228'
               d="m 158.18599,63.42821 a 5.3076079,5.3076079 0 0 0 6.58917,-4.691007 c 2.78076,5.97257 -1.58382,9.21275 -6.58917,4.691007 z" />
            <polygon
               id="polygon178"
               fill="#ff8b7b"
               points="140.69,385.34 147.65,381.33 157.9,396.79 150.94,400.8 "
               transform="matrix(1.2090223,0,0,1.2090223,-24.376375,-52.202683)" />
            <path
               id="path180"
               fill="#263238"
               strokeWidth='1.20902228'
               d="m 157.09787,431.66013 9.45456,-5.4406 a 0.67705249,0.67705249 0 0 1 0.95512,0.20553 l 4.83609,7.15742 a 1.6926312,1.6926312 0 0 1 -0.60451,2.32132 c -3.32481,1.8498 -5.00535,2.56313 -9.16439,4.95699 -2.56312,1.47501 -11.80005,6.40782 -18.61894,5.88794 -3.96559,-0.30226 -4.06232,-3.92932 -2.3455,-4.3283 7.70147,-1.77726 13.08162,-6.19019 14.37527,-9.41828 a 2.7928415,2.7928415 0 0 1 1.1123,-1.34202 z" />
            <polygon
               id="polygon182"
               points="145.98,393.31 152.94,389.3 147.65,381.33 140.69,385.34 "
               transform="matrix(1.2090223,0,0,1.2090223,-24.376375,-52.202683)"
               opacity='0.2'
            />
            <path
               id="path184"
               fill="#407bff"
               strokeWidth='1.20902228'
               d="m 107.40706,191.94728 c 0,0 -20.35994,80.07355 -22.487819,107.74807 -2.321323,30.2981 62.071209,122.57068 62.071209,122.57068 l 15.71729,-8.24553 c 0,0 -29.81449,-52.62874 -49.70291,-112.13682 9.67218,-31.13233 28.88354,-107.30073 28.88354,-107.30073 z" />
            <g
               id="g188"
               opacity='0.3'
               transform="matrix(1.2090223,0,0,1.2090223,-24.376375,-52.202683)">
              <path
                 id="path186"
                 fill="#ffffff"
                 d="m 109,201.94 c 0,0 -16.84,66.23 -18.6,89.12 -1.92,25.06 51.34,101.38 51.34,101.38 l 13,-6.82 c 0,0 -24.66,-43.53 -41.11,-92.75 8,-25.75 23.89,-88.75 23.89,-88.75 z" />
            </g>
            <path
               id="path190"
               fill="#407bff"
               strokeWidth='1.20902228'
               opacity="0.4"
               d="m 125.44567,223.4544 c -7.99164,14.00048 -10.68776,47.44204 -8.63242,65.71036 5.58568,-19.45317 12.62219,-46.14838 17.83308,-66.20606 -3.50617,-2.74448 -6.95188,-3.49407 -9.20066,0.4957 z" />
            <polygon
               id="polygon192"
               fill="#407bff"
               points="137.23,388.21 153.76,380.85 155.22,385.58 141.27,392.89 "
               transform="matrix(1.2090223,0,0,1.2090223,-24.376375,-52.202683)" />
            <path
               id="path194"
               fill="#407bff"
               strokeWidth='1.20902228'
               d="m 154.96999,434.82777 a 12.344118,12.344118 0 0 0 2.06743,-1.58382 0.25389468,0.25389468 0 0 0 0,-0.2418 0.21762401,0.21762401 0 0 0 -0.19344,-0.14509 c -0.3748,0 -3.69961,-0.27807 -4.49757,0.71333 a 0.83422539,0.83422539 0 0 0 -0.13299,0.81004 1.2090223,1.2090223 0 0 0 0.85841,0.91886 2.6598491,2.6598491 0 0 0 1.89816,-0.47152 z m 1.3662,-1.55964 c -1.32993,1.20902 -2.41805,1.75308 -3.08301,1.59591 -0.26598,-0.0605 -0.43525,-0.26598 -0.54406,-0.6166 a 0.38688714,0.38688714 0 0 1 0,-0.39898 c 0.48361,-0.53197 2.28505,-0.62869 3.62707,-0.58033 z" />
            <path
               id="path196"
               fill="#407bff"
               strokeWidth='1.20902228'
               d="m 156.97697,433.26813 0.0725,-0.0725 a 0.22971424,0.22971424 0 0 0 0,-0.21762 c 0,-0.10882 -1.20902,-2.61149 -2.58731,-2.93793 a 1.2090223,1.2090223 0 0 0 -0.99139,0.20554 0.87049606,0.87049606 0 0 0 -0.36271,1.00348 c 0.33852,1.02767 2.61149,2.04325 3.73588,2.05534 a 0.22971424,0.22971424 0 0 0 0.13299,-0.0363 z m -3.13137,-2.7203 a 0.77377427,0.77377427 0 0 1 0.51988,-0.0725 c 0.78587,0.19344 1.66845,1.53546 2.1037,2.33341 -1.08812,-0.19344 -2.69612,-1.02767 -2.92583,-1.70472 0,-0.1209 0,-0.29016 0.21762,-0.4957 z" />
            <path
               id="path198"
               fill="#407bff"
               strokeWidth='1.20902228'
               d="m 121.79442,123.23854 -8.74123,15.04024 c -1.43874,2.50268 -2.85329,5.00535 -4.17113,7.45967 -0.65287,1.20902 -1.20902,2.41804 -1.82562,3.62706 -0.6166,1.20903 -1.06394,2.34551 -1.28156,2.93793 l -0.47152,-4.47338 c 0.1209,0.55615 0.19344,1.12439 0.30225,1.64427 0.10881,0.51988 0.18136,1.06394 0.30226,1.53545 0.1209,0.47152 0.20553,0.97931 0.30225,1.45083 l 0.15718,0.70123 c 0,0.133 0,0.24181 0,0.35062 0,0.10881 0,0.1209 0,0.16926 0,0.0484 0,0.12091 -0.2539,0.12091 a 3.8930518,3.8930518 0 1 1 -1.20902,7.68938 h -0.85841 -0.60451 c -0.3627,0 -0.7375,-0.0846 -1.07603,-0.14508 a 11.38899,11.38899 0 0 1 -1.98279,-0.55615 14.508268,14.508268 0 0 1 -3.361086,-1.84981 17.89353,17.89353 0 0 1 -2.659849,-2.41804 c -0.386887,-0.43525 -0.737504,-0.88259 -1.10021,-1.34202 -0.362707,-0.45943 -0.628692,-0.91886 -0.943038,-1.37828 a 4.5821945,4.5821945 0 0 1 -0.677052,-3.44572 l 0.205534,-1.02767 a 36.077225,36.077225 0 0 1 1.62009,-5.47687 c 0.56824,-1.58382 1.209022,-3.05882 1.825623,-4.50965 1.209023,-2.88956 2.599398,-5.65822 4.001864,-8.37852 1.402464,-2.7203 2.841204,-5.38015 4.328304,-8.01582 1.48709,-2.63567 3.02255,-5.1988 4.691,-7.7982 v 0 a 7.8586449,7.8586449 0 0 1 13.39597,8.20926 z" />
            <path
               id="path200"
               fill="#263238"
               strokeWidth='1.20902228'
               d="m 116.89788,108.59728 c 9.84144,-0.7375 14.67753,6.21438 9.98652,17.67591 a 181.71605,181.71605 0 0 1 -9.58754,19.05419 c -0.78587,1.39038 -1.49919,2.62358 -2.09161,3.62707 L 95.486096,133.62404 c 3.832601,-9.07975 14.822614,-24.4827 21.411784,-25.02676 z" />
            <path
               id="path202"
               strokeWidth='1.20902228'
               opacity="0.3"
               d="m 114.74582,119.85328 c 6.52872,-4.23158 -2.55104,15.63266 -6.28691,23.87819 l -5.80331,-4.50965 c 1.55964,-5.88794 7.07278,-16.11627 12.09022,-19.36854 z" />
            <polygon
               id="polygon204"
               fill="#ff8b7b"
               points="130.13,388.94 138.12,389.55 137.89,408.14 129.9,407.53 "
               transform="matrix(1.2090223,0,0,1.2090223,-24.376375,-52.202683)" />
            <path
               id="path206"
               fill="#263238"
               strokeWidth='1.20902228'
               d="m 132.25246,439.34951 10.8812,0.82214 a 0.71332316,0.71332316 0 0 1 0.67706,0.72541 l -0.133,8.64451 a 1.6926312,1.6926312 0 0 1 -1.80144,1.59591 c -3.77215,-0.35062 -5.5615,-0.71332 -10.33714,-1.07603 -2.93792,-0.22971 -15.43921,-0.8705 -19.48944,-1.20902 -4.05022,-0.33853 -3.62707,-4.31621 -1.92234,-4.54593 7.81028,-1.03975 17.51873,-2.55103 20.3962,-4.48547 a 2.6598491,2.6598491 0 0 1 1.7289,-0.47152 z" />
            <polygon
               id="polygon208"
               opacity="0.2"
               points="130.01,398.52 138.01,399.13 138.12,389.55 130.13,388.94 "
               transform="matrix(1.2090223,0,0,1.2090223,-24.376375,-52.202683)" />
            <path
               id="path210"
               fill="#407bff"
               strokeWidth='1.20902228'
               d="m 126.25571,193.38602 c 0,0 -5.92421,73.29093 -6.25064,101.08635 -0.36271,30.43109 8.85004,132.04942 8.85004,132.04942 l 17.70009,1.3541 c 0,0 -1.32993,-98.5595 1.78935,-128.4828 3.38526,-32.47434 10.71194,-103.5044 10.71194,-103.5044 z" />
            <path
               id="path212"
               fill="#ffffff"
               strokeWidth='1.20902228'
               opacity="0.3"
               d="m 126.25571,193.38602 c 0,0 -5.92421,73.29093 -6.25064,101.08635 -0.36271,30.43109 8.85004,132.04942 8.85004,132.04942 l 17.70009,1.3541 c 0,0 -1.32993,-98.5595 1.78935,-128.4828 3.38526,-32.47434 10.71194,-103.5044 10.71194,-103.5044 z" />
            <polygon
               id="polygon214"
               fill="#407bff"
               points="125.66,390.29 143.05,392.49 141.97,397.12 126.16,395.91 "
               transform="matrix(1.2090223,0,0,1.2090223,-24.376375,-52.202683)" />
            <path
               id="path216"
               fill="#407bff"
               strokeWidth='1.20902228'
               d="m 128.71003,440.77616 a 12.573832,12.573832 0 0 0 2.5994,-0.15717 0.21762401,0.21762401 0 0 0 0.18135,-0.15718 0.24180446,0.24180446 0 0 0 -0.0846,-0.2418 c -0.29017,-0.22971 -2.90166,-2.30923 -4.11068,-1.93444 a 0.84631561,0.84631561 0 0 0 -0.56824,0.59242 1.2090223,1.2090223 0 0 0 0.20554,1.20903 2.6235784,2.6235784 0 0 0 1.77726,0.68914 z m 1.99489,-0.53197 c -1.75309,0.21762 -3.01047,0.0605 -3.43363,-0.41107 a 0.82213516,0.82213516 0 0 1 -0.10881,-0.82213 0.4231578,0.4231578 0 0 1 0.26598,-0.30226 c 0.65288,-0.19344 2.21252,0.73751 3.27646,1.53546 z" />
            <path
               id="path218"
               fill="#407bff"
               strokeWidth='1.20902228'
               d="m 131.24898,440.61899 a 0.16926312,0.16926312 0 0 0 0.10881,0 0.22971424,0.22971424 0 0 0 0.13299,-0.16927 c 0,-0.1209 0.42316,-2.87747 -0.48361,-3.89305 a 1.0881201,1.0881201 0 0 0 -0.93095,-0.38689 0.84631561,0.84631561 0 0 0 -0.87049,0.61661 c -0.29017,1.03976 1.01558,3.16763 1.93443,3.80842 a 0.19344357,0.19344357 0 0 0 0.10882,0.0242 z m -1.05185,-4.01396 a 0.64078182,0.64078182 0 0 1 0.47151,0.24181 4.9690817,4.9690817 0 0 1 0.42316,3.10718 c -0.78586,-0.77377 -1.64427,-2.41804 -1.45082,-3.05882 0,-0.1209 0.1209,-0.27808 0.45942,-0.29017 z" />
            <path
               id="path220"
               fill="#407bff"
               strokeWidth='1.20902228'
               d="m 107.40706,191.94728 51.66152,3.94141 c 0.67705,-4.59428 0.64078,-19.68288 2.74448,-38.68871 a 245.43153,245.43153 0 0 1 8.01582,-41.77172 c 0.30225,-1.02767 0.6166,-2.04325 0.93094,-3.05883 0,0 -2.57521,-0.7375 -6.299,-1.57173 -3.08301,-0.68914 -6.95188,-1.46291 -10.77239,-1.93443 a 193.18967,193.18967 0 0 0 -21.95585,-1.68054 c -3.39735,0.0604 -6.73425,0.3627 -9.3941,0.67705 -3.40944,0.42316 -5.42851,0.84631 -5.42851,0.84631 0,0 -11.29227,27.58989 -9.50291,83.24119 z" />
            <path
               id="path222"
               fill="#ff8b7b"
               strokeWidth='1.20902228'
               d="m 109.69211,152.69033 a 13.782854,13.782854 0 0 1 3.82051,-3.76006 21.762401,21.762401 0 0 0 2.88956,-1.65636 0.64078182,0.64078182 0 0 1 0.9914,0.50779 c 0,0.76168 -0.36271,1.98279 -2.41804,3.62706 -0.31435,2.41805 -4.02605,4.72728 -4.02605,4.72728 z" />
            <polygon
               id="polygon224"
               opacity='0.3'
               points="121.11,157.44 112.24,156.76 117.05,174.74 125.92,175.42 "
               transform="matrix(1.2090223,0,0,1.2090223,-24.376375,-52.202683)" />
            <polygon
               id="polygon226"
               fill="#ffffff"
               points="120.51,157.39 111.63,156.71 116.44,174.69 125.32,175.37 "
               transform="matrix(1.2090223,0,0,1.2090223,-24.376375,-52.202683)" />
            <path
               id="path228"
               opacity='0.3'
               strokeWidth='1.20902228'
               d="m 161.81306,157.13953 a 245.64915,245.64915 0 0 1 8.01582,-41.77172 c -3.43363,-0.55615 -9.35784,-0.67705 -10.71194,4.83609 -1.47501,5.91212 -1.1123,20.11813 2.69612,36.93563 z" />
            <path
               id="path230"
               fill="#ff8b7b"
               strokeWidth='1.20902228'
               d="m 174.3748,119.85328 c 0.54406,1.69263 0.97931,3.15555 1.39038,4.72728 0.41106,1.57173 0.78586,3.10718 1.20902,4.67891 0.68914,3.13137 1.31783,6.28692 1.75308,9.50292 a 93.27607,93.27607 0 0 1 0.90677,9.84144 61.24907,61.24907 0 0 1 -0.44734,10.42177 v 0.38689 a 6.5649911,6.5649911 0 0 1 -1.91026,3.8326 11.715426,11.715426 0 0 1 -2.41804,1.78935 13.710313,13.710313 0 0 1 -2.00698,0.93095 17.990252,17.990252 0 0 1 -3.3369,0.89468 35.871692,35.871692 0 0 1 -5.54941,0.4957 74.790119,74.790119 0 0 1 -9.8898,-0.56824 c -3.17973,-0.38689 -6.29901,-0.89468 -9.39411,-1.52337 -3.09509,-0.62869 -6.11765,-1.32993 -9.20066,-2.23669 a 3.9293225,3.9293225 0 0 1 1.06394,-7.70148 h 0.0725 l 9.01931,-0.0967 c 2.99838,0 5.97257,-0.10881 8.8984,-0.25389 2.92584,-0.14508 5.80331,-0.3748 8.46316,-0.73751 a 22.971424,22.971424 0 0 0 3.51826,-0.76168 5.5010515,5.5010515 0 0 0 1.05185,-0.43525 c 0.10881,0 0.0967,-0.0967 0.0605,-0.0725 a 1.4145561,1.4145561 0 0 0 -0.56824,0.38689 l -1.97071,4.21949 a 59.834514,59.834514 0 0 0 -0.38689,-7.90701 c -0.31434,-2.74448 -0.79795,-5.54941 -1.31783,-8.36643 -0.51988,-2.81703 -1.20902,-5.64614 -1.83772,-8.46316 -0.31434,-1.41456 -0.68914,-2.82911 -1.03975,-4.24367 l -1.06394,-4.11067 -0.0605,-0.22972 a 7.8586449,7.8586449 0 0 1 15.07651,-4.38875 z" />
            <path
               id="path232"
               fill="#263238"
               strokeWidth='1.20902228'
               d="m 170.74773,112.30898 c -9.45455,-2.9621 -15.10068,3.08301 -13.52896,15.40295 a 132.88364,132.88364 0 0 0 5.05372,20.78309 l 20.83145,-6.40782 c -1.81353,-9.7689 -6.03302,-27.79542 -12.35621,-29.77822 z" />
            <path
               id="path234"
               fill="#ff8b7b"
               strokeWidth='1.20902228'
               d="m 132.79652,107.12228 c 6.48036,-1.01558 7.87074,-4.83609 7.73775,-9.261115 a 25.49828,25.49828 0 0 0 -0.27808,-3.276451 l 8.46316,-6.045111 6.20228,-4.425022 c -2.1037,6.951878 -4.83609,19.707059 -0.3627,24.784959 a 94.654356,94.654356 0 0 1 -19.22346,10.57894 3.1313678,3.1313678 0 0 1 -4.12277,-1.92234 c -2.04324,-6.61335 1.58382,-10.43386 1.58382,-10.43386 z" />
            <path
               id="path236"
               opacity='0.2'
               strokeWidth='1.20902228'
               d="m 140.23201,94.584714 a 25.49828,25.49828 0 0 1 0.27808,3.276451 c 3.02255,-0.374797 7.71356,-2.68403 8.37852,-6.045112 a 13.166253,13.166253 0 0 0 -0.20553,-3.28854 z" />
            <path
               id="path238"
               fill="#ff8b7b"
               strokeWidth='1.20902228'
               d="m 155.39315,69.811847 c 0.44734,9.672179 1.20902,15.245772 -3.05883,20.807274 -6.40781,8.354344 -18.60685,5.573593 -21.90748,-3.627067 -2.9621,-8.318073 -3.216,-22.681258 5.67031,-27.807513 a 12.755185,12.755185 0 0 1 19.296,10.627306 z" />
            <path
               id="path240"
               fill="#263238"
               strokeWidth='1.20902228'
               d="m 151.35502,63.960179 c -2.7203,4.932811 -0.65288,8.535698 -0.65288,8.535698 l 0.50779,-2.321323 c 0,0 3.43363,3.627067 2.41805,7.834465 6.02093,-3.20391 6.69798,-15.656839 -2.27296,-14.04884 z" />
            <path
               id="path242"
               fill="#263238"
               strokeWidth='1.20902228'
               d="m 156.37246,65.435187 c -10.8812,2.418044 -16.99885,1.293653 -18.93329,0.882586 4.55801,-0.314346 5.75495,-2.418045 5.75495,-2.418045 0,0 -10.8812,2.67194 -13.09372,1.813534 2.18833,-6.625442 7.25414,-9.672179 17.5671,-9.273201 10.31296,0.398977 8.70496,8.995126 8.70496,8.995126 z" />
            <path
               id="path244"
               fill="#ff8b7b"
               strokeWidth='1.20902228'
               d="m 160.02371,78.782793 a 10.192058,10.192058 0 0 1 -4.83609,4.944901 c -2.74448,1.209022 -4.09859,-1.209022 -3.32481,-4.207398 0.68914,-2.659849 2.95001,-6.50454 5.69449,-6.492449 2.74448,0.01209 3.72379,3.034646 2.46641,5.754946 z" />
            <path
               id="path246"
               fill="#263238"
               strokeWidth='1.20902228'
               d="m 141.25968,74.442403 c 0.0846,0.785864 -0.25389,1.462917 -0.76168,1.535458 -0.50779,0.07254 -0.9914,-0.507789 -1.07603,-1.281564 -0.0846,-0.773774 0.26598,-1.462917 0.76168,-1.535458 0.4957,-0.07254 1.07603,0.507789 1.07603,1.281564 z" />
            <path
               id="path248"
               fill="#263238"
               strokeWidth='1.20902228'
               d="m 132.54263,75.639335 c 0.0846,0.773774 -0.2539,1.462917 -0.76168,1.535458 -0.50779,0.07254 -0.97931,-0.507789 -1.06394,-1.293654 -0.0846,-0.785864 0.25389,-1.462917 0.76168,-1.523368 0.50779,-0.06045 0.97931,0.495699 1.06394,1.281564 z" />
            <path
               id="path250"
               fill="#ff5652"
               strokeWidth='1.20902228'
               d="m 135.35965,75.651425 a 29.173708,29.173708 0 0 1 -2.9621,7.157412 c 1.49918,1.10021 3.76006,0.193444 3.76006,0.193444 z" />
            <path
               id="path252"
               fill="#263238"
               strokeWidth='1.20902228'
               d="m 139.78384,85.589842 a 6.6496226,6.6496226 0 0 0 -5.21598,0.710543 0.21762401,0.21762401 0 0 0 -0.0536,0.316751 0.22971424,0.22971424 0 0 0 0.31082,0.06408 6.3715475,6.3715475 0 0 1 5.65434,-0.38025 0.21762401,0.21762401 0 0 0 0.29318,-0.126222 0.22971424,0.22971424 0 0 0 -0.13677,-0.299112 6.3473671,6.3473671 0 0 0 -0.852,-0.285837 z" />
            <path
               id="path254"
               fill="#263238"
               strokeWidth='1.20902228'
               d="m 143.67772,71.238494 a 0.50778937,0.50778937 0 0 0 0.19345,-0.108812 0.45942847,0.45942847 0 0 0 0,-0.652872 4.4492021,4.4492021 0 0 0 -3.90514,-1.390376 0.43524803,0.43524803 0 0 0 -0.35062,0.54406 0.44733825,0.44733825 0 0 0 0.54406,0.350616 3.5303451,3.5303451 0 0 1 3.05883,1.124391 0.44733825,0.44733825 0 0 0 0.45942,0.132993 z" />
            <path
               id="path256"
               fill="#263238"
               strokeWidth='1.20902228'
               d="m 128.45613,73.124568 a 0.44733825,0.44733825 0 0 0 0.31435,-0.290165 3.8205105,3.8205105 0 0 1 2.3455,-2.418045 0.43524803,0.43524803 0 0 0 0.32644,-0.55615 0.45942847,0.45942847 0 0 0 -0.55615,-0.326436 v 0 a 4.6910065,4.6910065 0 0 0 -2.96211,2.998375 0.45942847,0.45942847 0 0 0 0.27808,0.592421 0.41106758,0.41106758 0 0 0 0.25389,0 z" />
            <path
               id="path258"
               fill="#ff8b7b"
               strokeWidth='1.20902228'
               d="m 138.59983,156.19649 -9.92607,-6.12974 0.91885,12.19903 c 0,0 8.30599,2.9742 9.44247,-1.42664 z" />
            <path
               id="path260"
               fill="#ff8b7b"
               strokeWidth='1.20902228'
               d="m 131.82931,152.01327 a 14.024659,14.024659 0 0 0 -3.90515,-3.74797 21.762401,21.762401 0 0 1 -3.15554,-2.12787 0.6286916,0.6286916 0 0 0 -0.97931,0.50778 c 0,0.7496 0.64078,2.41805 2.65985,4.11068 0.37479,2.41804 4.12276,4.71519 4.12276,4.71519 z" />
            <path
               id="path262"
               fill="#ff8b7b"
               strokeWidth='1.20902228'
               d="m 120.10179,151.09442 0.88259,7.64102 a 1.6200899,1.6200899 0 0 0 1.20902,1.37828 l 7.43549,2.15206 -0.91886,-12.09022 -6.75844,-0.85841 a 1.6079997,1.6079997 0 0 0 -1.8498,1.77727 z" />
            <path
               id="path264"
               fill="#ff8b7b"
               strokeWidth='1.20902228'
               d="m 104.98901,154.62476 8.59615,-4.34039 -0.21762,10.73612 c 0,0 -8.9105,2.65985 -9.44247,-1.87398 z" />
            <path
               id="path266"
               fill="#ff8b7b"
               strokeWidth='1.20902228'
               d="m 117.29686,150.68335 v 8.46316 a 1.0518494,1.0518494 0 0 1 -0.77378,1.01557 l -3.20391,0.83423 0.21763,-10.73612 2.41804,-0.62869 a 1.0518494,1.0518494 0 0 1 1.34202,1.05185 z" />
          </g>
          <g
             transform="matrix(1.2090223,0,0,1.2090223,-24.376375,-6.2598358)"
             id="g5849">
            <path
               id="path113"
               fill="#263238"
               strokeWidth='0.66284615'
               opacity="0.1"
               d="m 372.96577,101.69808 -9.75126,34.35327 a 6.4428648,6.4428648 0 0 0 7.32501,8.06612 l 35.88547,-6.40041 a 6.4428648,6.4428648 0 0 0 3.57409,-10.74744 L 383.86034,99.043715 a 6.4428648,6.4428648 0 0 0 -10.89457,2.654365 z" />
            <path
               id="path121"
               fill="#407bff"
               strokeWidth='0.66284615'
               d="m 376.49051,100.23963 -9.15391,34.71325 a 6.4428648,6.4428648 0 0 0 7.47028,7.95415 l 35.50867,-6.92674 a 6.4428648,6.4428648 0 0 0 3.44017,-10.72485 L 387.42747,97.449043 a 6.4494932,6.4494932 0 0 0 -10.93696,2.790587 z" />
            <path
               id="path123"
               fill="#ffffff"
               strokeWidth='0.66284615'
               d="m 374.73397,140.10982 a 3.9306778,3.9306778 0 0 1 -3.59263,-1.20638 3.8511362,3.8511362 0 0 1 -0.99427,-3.63239 l 9.17379,-34.80606 a 3.3142309,3.3142309 0 0 1 2.59836,-2.419386 3.9373062,3.9373062 0 0 1 3.59262,1.213009 l 26.42105,27.839537 a 3.8577647,3.8577647 0 0 1 1.0009,3.6324 3.3142309,3.3142309 0 0 1 -2.59836,2.41276 z" />
            <path
               id="path125"
               fill="#407bff"
               strokeWidth='0.66284615'
               d="m 383.64262,108.63789 2.2603,-0.44411 a 2.9960647,2.9960647 0 0 1 3.36726,2.16751 l 0.80867,3.0292 a 3.0756062,3.0756062 0 0 1 0.0729,0.33805 l 1.43837,9.53836 a 2.4724162,2.4724162 0 0 1 -1.98854,2.85687 v 0 a 2.9828078,2.9828078 0 0 1 -3.2612,-1.84271 l -3.67217,-9.06774 a 2.6513847,2.6513847 0 0 1 -0.11268,-0.32479 l -0.83519,-3.03584 a 2.4923016,2.4923016 0 0 1 1.92226,-3.2148 z m 6.39646,20.07098 0.61645,-0.11931 a 2.6513847,2.6513847 0 0 1 3.01595,1.93551 v 0 a 2.2271631,2.2271631 0 0 1 -1.69689,2.85024 l -0.61644,0.11931 a 2.6513847,2.6513847 0 0 1 -3.01595,-1.92888 v 0 a 2.2337916,2.2337916 0 0 1 1.69688,-2.85687 z" />
          </g>
        </g>
      </svg>
