<svg xmlns="http://www.w3.org/2000/svg" width="400" height="280">
    <ellipse style="fill:#f5f5f5" ry="11.32" rx="193.89" cy="416.24" cx="250" transform="translate(-50 -169.292)"/>
    <path d="M77.27 221.53a.43.43 0 0 1-.43-.39l-2.22-26.7A.42.42 0 0 1 75 194a.43.43 0 0 1 .46.39l2.22 26.7a.43.43 0 0 1-.39.46zM78.59 237.39a.43.43 0 0 1-.43-.39l-.67-8.08a.42.42 0 0 1 .39-.46.42.42 0 0 1 .46.39l.67 8.08a.43.43 0 0 1-.39.46z"
          style="fill:#407bff" transform="matrix(1.16222 0 0 1.16222 -60.63 -157.249)"/>
    <path d="M303.56 313.37H97.08a10.63 10.63 0 0 1-10.37-9.58L75.08 164a8.7 8.7 0 0 1 8.78-9.58h206.47a10.64 10.64 0 0 1 10.38 9.58l11.63 139.77a8.71 8.71 0 0 1-8.78 9.6z"
          style="fill:#fff" transform="matrix(1.16222 0 0 1.16222 -60.63 -157.249)"/>
    <path d="M303.56 313.77H97.08a11 11 0 0 1-10.77-9.94L74.68 164.05a9.2 9.2 0 0 1 2.37-7.05 9.1 9.1 0 0 1 6.81-3h206.47a11 11 0 0 1 10.78 10l11.62 139.77a9.09 9.09 0 0 1-9.17 10zM83.86 154.84a8.3 8.3 0 0 0-8.39 9.16L87.1 303.76a10.22 10.22 0 0 0 10 9.21h206.46a8.3 8.3 0 0 0 8.38-9.14l-11.63-139.78a10.21 10.21 0 0 0-10-9.21z"
          style="fill:#407bff" transform="matrix(1.16222 0 0 1.16222 -60.63 -157.249)"/>
    <path d="M290.33 154.44H83.86a8.7 8.7 0 0 0-8.78 9.56h225.63a10.64 10.64 0 0 0-10.38-9.56z" style="fill:#407bff" transform="matrix(1.16222 0 0 1.16222 -60.63 -157.249)"/>
    <path d="M88.69 159.23a1.87 1.87 0 0 1-1.89 2.07 2.3 2.3 0 0 1-2.24-2.07 1.88 1.88 0 0 1 1.89-2.07 2.28 2.28 0 0 1 2.24 2.07zM97.09 159.23a1.87 1.87 0 0 1-1.89 2.07 2.3 2.3 0 0 1-2.2-2.07 1.88 1.88 0 0 1 1.89-2.07 2.28 2.28 0 0 1 2.2 2.07zM105.49 159.23a1.87 1.87 0 0 1-1.89 2.07 2.3 2.3 0 0 1-2.24-2.07 1.88 1.88 0 0 1 1.89-2.07 2.28 2.28 0 0 1 2.24 2.07z"
          style="fill:#fff" transform="matrix(1.16222 0 0 1.16222 -60.63 -157.249)"/>
    <path d="M285.64 295.05H112a8.45 8.45 0 0 1-8.25-7.61L95.59 190a6.92 6.92 0 0 1 7-7.61h173.67a8.45 8.45 0 0 1 8.25 7.61l8.11 97.49a6.92 6.92 0 0 1-6.98 7.56z"
          style="fill:#f0f0f0" transform="matrix(1.16222 0 0 1.16222 -60.63 -157.249)"/>
    <path d="m231.92 199.41-53.8 64.78a15.39 15.39 0 0 0 8.58 24.88l87.3 18.87a15.39 15.39 0 0 0 17.55-20.76l-33.47-83.66a15.39 15.39 0 0 0-26.16-4.11zM112.16 208.49 93.42 259a9.72 9.72 0 0 0 10.06 13l54.73-5.37a9.72 9.72 0 0 0 6.65-15.74l-36-45.1a9.72 9.72 0 0 0-16.7 2.7z"
          style="opacity:.1;fill:#263238" transform="matrix(1.16222 0 0 1.16222 -60.63 -157.249)"/>
    <path d="m250.48 183.1-50.3 73a16.18 16.18 0 0 0 11.2 25.22l92.46 12.31a16.18 16.18 0 0 0 16.64-23.21l-42.16-85.34a16.18 16.18 0 0 0-27.84-1.98z" style="fill:#407bff"
          transform="matrix(1.16222 0 0 1.16222 -60.63 -157.249)"/>
    <path d="M213.57 274.8a10.22 10.22 0 0 1-7.82-5.67 9 9 0 0 1 .47-9.2l50.43-73.22a8.48 8.48 0 0 1 8.29-3.52 10.2 10.2 0 0 1 7.82 5.67L315 274.41a9 9 0 0 1-.47 9.2 8.47 8.47 0 0 1-8.29 3.53z"
          style="fill:#fff" transform="matrix(1.16222 0 0 1.16222 -60.63 -157.249)"/>
    <path d="m260.65 209.07 5.89.78a7.57 7.57 0 0 1 6.51 7.7l-.4 7.68a5.7 5.7 0 0 1-.09.83l-4.19 23.15a6.23 6.23 0 0 1-7.11 5 7.61 7.61 0 0 1-6.51-6.87l-1.69-23.92a5.77 5.77 0 0 1 0-.83l.39-7.69a6.21 6.21 0 0 1 7.2-5.83zm-.47 51.56 1.6.21a6.78 6.78 0 0 1 5.83 6.89 5.57 5.57 0 0 1-6.45 5.25l-1.6-.22a6.77 6.77 0 0 1-5.83-6.88 5.56 5.56 0 0 1 6.45-5.25zM131.5 194.26l-13.81 52.37a9.72 9.72 0 0 0 11.27 12l53.57-10.45a9.72 9.72 0 0 0 5.19-16.18L148 190.05a9.73 9.73 0 0 0-16.5 4.21z"
          style="fill:#407bff" transform="matrix(1.16222 0 0 1.16222 -60.63 -157.249)"/>
    <path d="M128.85 254.41a5.93 5.93 0 0 1-5.42-1.82 5.81 5.81 0 0 1-1.5-5.48l13.84-52.51a5 5 0 0 1 3.92-3.65 5.94 5.94 0 0 1 5.42 1.83l39.86 42a5.82 5.82 0 0 1 1.51 5.48 5 5 0 0 1-3.92 3.64z"
          style="fill:#fff" transform="matrix(1.16222 0 0 1.16222 -60.63 -157.249)"/>
    <path d="m142.29 206.93 3.41-.67a4.52 4.52 0 0 1 5.08 3.27l1.22 4.57a4.64 4.64 0 0 1 .11.51l2.17 14.39a3.73 3.73 0 0 1-3 4.31 4.5 4.5 0 0 1-4.92-2.78l-5.54-13.68a4 4 0 0 1-.17-.49l-1.26-4.58a3.76 3.76 0 0 1 2.9-4.85zm9.65 30.28.93-.18a4 4 0 0 1 4.55 2.92 3.36 3.36 0 0 1-2.56 4.3l-.93.18a4 4 0 0 1-4.55-2.91 3.37 3.37 0 0 1 2.56-4.31z"
          style="fill:#407bff" transform="matrix(1.16222 0 0 1.16222 -60.63 -157.249)"/>
    <g>
        <path d="m388.36 206-7.76 2.52 6.24 7.38a23.64 23.64 0 0 0 4.55-5.31 2.47 2.47 0 0 0-.88-3.35zM381.68 220.27l5.17-4.33-6.25-7.38-3.57 6.06z" style="fill:#7f3e3b"
              transform="matrix(.65028 0 0 .65028 103.043 -25.602)"/>
        <path d="M390.87 145.68c1.89 5.2 3.63 10.4 5.28 15.67 1.65 5.27 3.17 10.56 4.5 16.1l.47 2.13.22 1.11.11.56v.35l.06.42a17.53 17.53 0 0 1-.28 5.7 41.89 41.89 0 0 1-2.88 8.72 82.09 82.09 0 0 1-8.56 14.8l-5.19-2.87c1.84-5 3.66-10.11 5-15.06a42.22 42.22 0 0 0 1.38-7.09 8.38 8.38 0 0 0-.12-2.48l-.43-1.56-.56-1.85c-1.57-5-3.36-10.15-5.13-15.27-1.77-5.12-3.54-10.29-5.24-15.42z"
              style="fill:#7f3e3b" transform="matrix(.65028 0 0 .65028 103.043 -25.602)"/>
        <path d="M347.68 114.74c.13.63-.09 1.21-.49 1.32-.4.11-.84-.33-1-1-.16-.67.08-1.21.49-1.31.41-.1.87.37 1 .99z" style="fill:#263238"
              transform="matrix(.65028 0 0 .65028 103.043 -25.602)"/>
        <path d="M347.65 115.94a24.21 24.21 0 0 1-1.82 6.07 3.58 3.58 0 0 0 3.06-.18z" style="fill:#630f0f" transform="matrix(.65028 0 0 .65028 103.043 -25.602)"/>
        <path d="M346 111a.38.38 0 0 1-.31-.16.37.37 0 0 1 .09-.52 3.7 3.7 0 0 1 3.39-.26.37.37 0 0 1 .2.49.38.38 0 0 1-.49.21 2.9 2.9 0 0 0-2.67.17.33.33 0 0 1-.21.07Z"
              style="fill:#263238" transform="matrix(.65028 0 0 .65028 103.043 -25.602)"/>
        <path d="M369.11 116.72c.7 7.26-.33 14.29 1.29 20.6 0 0-1.8 5.86-12.53 5.86-11.8 0-5.41-5.86-5.41-5.86 6.5-1.53 6.51-6.31 5.57-10.8z" style="fill:#7f3e3b"
              transform="matrix(.65028 0 0 .65028 103.043 -25.602)"/>
        <path d="M372.69 139.33c.92-1.85 1.53-4.48-.37-5.14-2.09-.73-13.26-1-17.31.4a4.28 4.28 0 0 0-3.07 5.13z" style="fill:#263238"
              transform="matrix(.65028 0 0 .65028 103.043 -25.602)"/>
        <path d="M396.8 402.69a9.77 9.77 0 0 0 2.12-.82.21.21 0 0 0 .12-.19.19.19 0 0 0-.14-.18c-.35-.12-3.45-1.15-4.27-.45a.66.66 0 0 0-.21.64 1.23 1.23 0 0 0 .66 1 2.63 2.63 0 0 0 1.72 0zm1.48-1c-1.36.62-2.46.83-3 .55a.79.79 0 0 1-.44-.66.24.24 0 0 1 .07-.26c.41-.32 2.09.03 3.37.41z"
              style="fill:#407bff" transform="matrix(.65028 0 0 .65028 103.043 -25.602)"/>
        <path d="M398.88 401.89a.21.21 0 0 0 .15-.26c0-.1-.81-2.48-2-3a1.12 1.12 0 0 0-.91-.06.66.66 0 0 0-.51.67c0 1 2.16 2.42 3.14 2.69zm-2.5-3a.74.74 0 0 1 .5.06 4.93 4.93 0 0 1 1.61 2.4c-1-.45-2.42-1.59-2.44-2.17 0-.05 0-.17.24-.27zM342.18 408.8a10.44 10.44 0 0 0 2.25-.31.23.23 0 0 0 .16-.17.23.23 0 0 0-.1-.21c-.31-.19-3.09-1.9-4.05-1.41a.64.64 0 0 0-.35.58 1.26 1.26 0 0 0 .42 1.08 2.7 2.7 0 0 0 1.67.44zm1.66-.6c-1.46.29-2.59.24-3.06-.16a.82.82 0 0 1-.28-.74c0-.16.07-.21.13-.24.49-.25 2.08.48 3.21 1.14z"
              style="fill:#407bff" transform="matrix(.65028 0 0 .65028 103.043 -25.602)"/>
        <path d="M344.38 408.49a.27.27 0 0 0 .12 0 .22.22 0 0 0 .09-.19c0-.1-.22-2.59-1.22-3.41a1.08 1.08 0 0 0-.87-.26.66.66 0 0 0-.65.53c-.18 1 1.54 2.85 2.44 3.34zm-1.74-3.49a.7.7 0 0 1 .47.17 4.89 4.89 0 0 1 1 2.71c-.89-.68-2-2.1-1.88-2.67 0 0 0-.18.3-.21h.09z"
              style="fill:#407bff" transform="matrix(.65028 0 0 .65028 103.043 -25.602)"/>
        <path style="fill:#7f3e3b" d="m345.77 408.18-.08-18.28h7.9l.08 18.28zM401.06 402.81l-5.45-17.99 7.6-1.39 5.45 17.99z"
              transform="matrix(.65028 0 0 .65028 103.043 -25.602)"/>
        <path d="m399.62 400.79 8.63-2a.66.66 0 0 1 .76.37l2.86 6.53a1.21 1.21 0 0 1-.85 1.65c-3 .66-4.52.82-8.32 1.72-2.33.55-7.09 1.94-10.32 2.7-3.23.76-4.27-2.36-3-3 5.66-2.71 7.54-5 9.09-7.2a2 2 0 0 1 1.15-.77zM345.86 407.26h8.62a.66.66 0 0 1 .65.54l1.29 7a1.19 1.19 0 0 1-1.19 1.4c-3.11-.05-7.59-.23-11.5-.23-4.57 0-6.2.25-11.56.25-3.24 0-4-3.28-2.64-3.57 6.22-1.36 8.94-1.5 14.41-4.79a3.73 3.73 0 0 1 1.92-.6z"
              style="fill:#263238" transform="matrix(.65028 0 0 .65028 103.043 -25.602)"/>
        <path d="M388 139.36c7.37 5.19 9.59 18.55 9.59 18.55l-16.7 8.46a79.67 79.67 0 0 1-6.1-16.57c-1.79-7.9 7.97-14.12 13.21-10.44Z" style="fill:#407bff"
              transform="matrix(.65028 0 0 .65028 103.043 -25.602)"/>
        <path d="m379.65 147.88 6.58 15.76-5.34 2.73a88.92 88.92 0 0 1-4.32-10.32z" style="opacity:.2" transform="matrix(.65028 0 0 .65028 103.043 -25.602)"/>
        <path d="M338.89 174c.06 8.81.59 19.77 1.9 33.37H383c.51-6.2-2.08-35.43 4.21-64.7a3.87 3.87 0 0 0-3.19-4.64 96.6 96.6 0 0 0-10-1.07 155.68 155.68 0 0 0-17.95 0 70.18 70.18 0 0 0-7.19 1 9.58 9.58 0 0 0-7.38 7.04 83.7 83.7 0 0 0-2.31 16.45c-.19 3.6-.33 7.77-.3 12.55z"
              style="fill:#407bff" transform="matrix(.65028 0 0 .65028 103.043 -25.602)"/>
        <path d="M352.21 157.46c-2.79 2-8.13 3-13 3.41.08-1.29.18-2.51.29-3.66 1.31-.69 2.57-1.32 3.76-1.9z" style="opacity:.2"
              transform="matrix(.65028 0 0 .65028 103.043 -25.602)"/>
        <g style="opacity:.2">
            <path d="M327.873 234.551h5.13l-.026-6.607h-5.137zM360.302 224.647l1.834 6.029 4.942-.91-1.834-6.029z"/>
        </g>
        <path d="M368 108.22c1.15 7.77 2.22 12.25-.78 17.15a10.18 10.18 0 0 1-18-1c-3.09-6.46-4.46-18.09 2.31-23a10.3 10.3 0 0 1 16.47 6.85z" style="fill:#7f3e3b"
              transform="matrix(.65028 0 0 .65028 103.043 -25.602)"/>
        <path d="M351.84 113.9c-2.93-1.29-2.65-5.9-1.76-7.84-3.39 1.16-8.29 1.83-9.17-1.62-.88-3.45 2.11-4.55.28-7.5-1.83-2.95 4-6.16 6.72-2 2.72 4.16 9.44 2.3 13.78-1.67 3.16-2.89 7.78.84 5.95 4.61 0 0 9.5-.61 7.61 5.84-1.89 6.45-4.56 6.67-3.95 11.26.42 3.1.78 9.4-2.94 10.29-4.5 1.03-15.72-2.96-16.52-11.37z"
              style="fill:#263238" transform="matrix(.65028 0 0 .65028 103.043 -25.602)"/>
        <path d="M351.78 122.31c-.86.62-1.75 1.28-2.66 2l.05.11a10.51 10.51 0 0 0 4.09 4.51c.57-.55.89-2.4 1.95-2.37 3.17.09 9.3-1.24 10.32-4.82z" style="opacity:.2"
              transform="matrix(.65028 0 0 .65028 103.043 -25.602)"/>
        <path d="M354.25 113.79a9.45 9.45 0 0 1-.76 5.07c-.9 1.83-2.32.66-2.87-1.59-.5-2-.63-5.41.67-6.41s2.71.65 2.96 2.93z" style="fill:#7f3e3b"
              transform="matrix(.65028 0 0 .65028 103.043 -25.602)"/>
        <path d="M355.77 207.4s6.63 60.32 10.67 82.92c4.43 24.75 27.37 102.43 27.37 102.43l14.14-3s-15.79-72.68-17.95-97.18c-2.31-26.6-7-85.17-7-85.17z" style="fill:#407bff"
              transform="matrix(.65028 0 0 .65028 103.043 -25.602)"/>
        <path d="M355.77 207.4s6.63 60.32 10.67 82.92c4.43 24.75 27.37 102.43 27.37 102.43l14.14-3s-15.79-72.68-17.95-97.18c-2.2-25.28-2.2-25.23-7-85.17z" style="opacity:.3"
              transform="matrix(.65028 0 0 .65028 103.043 -25.602)"/>
        <path d="M390.65 388c-.06 0 2.4 5.16 2.4 5.16l15.95-3.41-1.13-4.82z" style="fill:#263238" transform="matrix(.65028 0 0 .65028 103.043 -25.602)"/>
        <path d="M360.6 228.9c10.28 2 7.69 40.65 5.68 60.52-2.44-14-5.77-41.07-8-60.24a3.49 3.49 0 0 1 2.32-.28z" style="opacity:.2"
              transform="matrix(.65028 0 0 .65028 103.043 -25.602)"/>
        <path d="M340.79 207.4s-3.36 59-3.43 83.09c-.08 25 5.5 107 5.5 107h13.38s3.6-80.51 5.14-105.1c1.68-26.81 7.17-85 7.17-85z" style="fill:#407bff"
              transform="matrix(.65028 0 0 .65028 103.043 -25.602)"/>
        <path d="M340.79 207.4s-3.36 59-3.43 83.09c-.08 25 5.5 107 5.5 107h13.38s3.6-80.51 5.14-105.1c1.68-26.81 7.17-85 7.17-85z" style="opacity:.3"
              transform="matrix(.65028 0 0 .65028 103.043 -25.602)"/>
        <path d="M340.5 392.18c-.06 0 .54 5.55.54 5.55h16.26l.63-5z" style="fill:#263238" transform="matrix(.65028 0 0 .65028 103.043 -25.602)"/>
        <path d="M357.52 151.74c-1.6.15-2.95.24-4.42.28-1.47.04-2.87.07-4.3.06-2.88 0-5.76-.18-8.66-.5a66 66 0 0 1-8.74-1.5 42.55 42.55 0 0 1-8.82-3.13l-.33-.17a5.21 5.21 0 0 1-2.38-7 5.45 5.45 0 0 1 .49-.81 28.16 28.16 0 0 1 4.05-4.33c1.35-1.2 2.7-2.27 4.06-3.29 2.72-2.05 5.5-3.86 8.29-5.62 2.79-1.76 5.64-3.39 8.51-5 2.87-1.61 5.76-3.06 8.76-4.45a3 3 0 0 1 3.07 5.06c-2.51 1.93-5.1 3.84-7.61 5.8-2.51 1.96-5 3.89-7.49 5.87s-4.86 4-7.13 6c-1.13 1-2.22 2-3.19 3.09a20.48 20.48 0 0 0-2.36 2.88l-2.21-8a36.65 36.65 0 0 0 6.72 1.79 70.8 70.8 0 0 0 7.41.86c2.53.16 5.09.25 7.66.25h3.86c1.28 0 2.63-.1 3.75-.16h.13a6 6 0 0 1 .92 11.93z"
              style="fill:#7f3e3b" transform="matrix(.65028 0 0 .65028 103.043 -25.602)"/>
        <path d="m363.12 114.72-5 1.11s-6.69-.83-8.22 4.21l4 3.38 6.12 1a4.62 4.62 0 0 0 2.83-.46l1.56-.81a2.38 2.38 0 0 0 1.28-1.89l.37-4a2.38 2.38 0 0 0-2.94-2.54z"
              style="fill:#7f3e3b" transform="matrix(.65028 0 0 .65028 103.043 -25.602)"/>
        <path d="M353.36 157.58c-8.41 2.34-18-.58-18-.58l3.53-18.83s8.35-.74 13.57-.85c13.43-.32 16.06 16.06.9 20.26z" style="fill:#407bff"
              transform="matrix(.65028 0 0 .65028 103.043 -25.602)"/>
    </g>
</svg>
