<?xml version="1.0" encoding="UTF-8" standalone="no"?>
<!-- Generator: Adobe Illustrator 19.2.0, SVG Export Plug-In . SVG Version: 6.00 Build 0)  -->

<svg
   xmlns:dc="http://purl.org/dc/elements/1.1/"
   xmlns:cc="http://creativecommons.org/ns#"
   xmlns:rdf="http://www.w3.org/1999/02/22-rdf-syntax-ns#"
   xmlns:svg="http://www.w3.org/2000/svg"
   xmlns="http://www.w3.org/2000/svg"
   xmlns:sodipodi="http://sodipodi.sourceforge.net/DTD/sodipodi-0.dtd"
   xmlns:inkscape="http://www.inkscape.org/namespaces/inkscape"
   version="1.0"
   id="Layer_1"
   x="0px"
   y="0px"
   viewBox="0 0 239.99999 45.999997"
   xml:space="preserve"
   sodipodi:docname="MMN_H_RGB.svg"
   width="240"
   height="46"
   inkscape:version="0.92.1 r15371"><metadata
     id="metadata39"><rdf:RDF><cc:Work
         rdf:about=""><dc:format>image/svg+xml</dc:format><dc:type
           rdf:resource="http://purl.org/dc/dcmitype/StillImage" /><dc:title></dc:title></cc:Work></rdf:RDF></metadata><defs
     id="defs37" /><sodipodi:namedview
     pagecolor="#ffffff"
     bordercolor="#666666"
     borderopacity="1"
     objecttolerance="10"
     gridtolerance="10"
     guidetolerance="10"
     inkscape:pageopacity="0"
     inkscape:pageshadow="2"
     inkscape:window-width="2776"
     inkscape:window-height="1340"
     id="namedview35"
     showgrid="false"
     showguides="true"
     inkscape:guide-bbox="true"
     inkscape:zoom="5.5561951"
     inkscape:cx="148.48999"
     inkscape:cy="32.377959"
     inkscape:window-x="75"
     inkscape:window-y="5"
     inkscape:window-maximized="0"
     inkscape:current-layer="Layer_1" /><style
     type="text/css"
     id="style2">
	.st0{fill:#009DCD;}
	.st1{fill:#00B3E6;}
	.st2{fill:#3E7692;}
	.st3{fill:#51545D;}
</style><g
     id="g4531"
     transform="matrix(0.92539592,0,0,0.92539592,-142.78452,-238.69705)"><g
       id="g14"><polygon
         id="polygon4"
         points="156.4,293 166.6,303.3 166.6,282.8 156.4,272.5 "
         class="st0"
         style="fill:#009dcd" /><rect
         id="rect6"
         height="43.5"
         width="14.5"
         class="st1"
         transform="matrix(0.7071,-0.7071,0.7071,0.7071,-148.1376,207.9128)"
         y="261"
         x="169.60001"
         style="fill:#00b3e6" /><polygon
         id="polygon8"
         points="176.9,293 166.6,282.8 166.6,303.3 "
         class="st2"
         style="fill:#3e7692" /><polygon
         id="polygon10"
         points="176.9,272.5 187.2,262.3 187.2,282.8 "
         class="st2"
         style="fill:#3e7692" /><polygon
         id="polygon12"
         points="197.4,293 187.2,282.8 187.2,262.3 197.4,272.5 "
         class="st0"
         style="fill:#009dcd" /></g><g
       id="g32"><path
         id="path16"
         d="m 235.8,278.8 -6.8,8.5 -6.5,-8.5 V 293 h -4.6 v -20.5 h 5.2 l 6,7.9 6,-7.9 h 5.2 V 293 h -4.6 v -14.2 z"
         class="st3"
         inkscape:connector-curvature="0"
         style="fill:#51545d" /><path
         id="path18"
         d="m 307.5,278.8 -6.8,8.5 -6.5,-8.5 V 293 h -4.6 v -20.5 h 5.2 l 6,7.9 6,-7.9 H 312 V 293 h -4.6 v -14.2 z"
         class="st3"
         inkscape:connector-curvature="0"
         style="fill:#51545d" /><path
         id="path20"
         d="m 250.8,293 v -20.5 h 4.5 V 293 Z"
         class="st3"
         inkscape:connector-curvature="0"
         style="fill:#51545d" /><path
         id="path22"
         d="M 270.2,276.6 H 264 v -4.1 h 17 v 4.1 h -6.2 V 293 h -4.5 v -16.4 z"
         class="st3"
         inkscape:connector-curvature="0"
         style="fill:#51545d" /><path
         id="path24"
         d="m 330.5,280.6 5.2,-8.1 h 5.2 v 0.2 l -8.2,12.1 v 8.1 h -4.6 v -8.1 l -7.9,-12.1 v -0.2 h 5.3 z"
         class="st3"
         inkscape:connector-curvature="0"
         style="fill:#51545d" /><path
         id="path26"
         d="m 363.3,285.8 -0.3,-6.4 v -6.9 h 4.6 V 293 h -3.9 l -10.2,-13.1 0.2,6.7 V 293 H 349 v -20.5 h 3.9 z"
         class="st3"
         inkscape:connector-curvature="0"
         style="fill:#51545d" /><path
         id="path28"
         d="m 378,293 v -20.5 h 4.5 V 293 Z"
         class="st3"
         inkscape:connector-curvature="0"
         style="fill:#51545d" /><path
         id="path30"
         d="m 401.4,272.5 c 7.1,0 10.2,4.7 10.2,10.1 0,5.4 -3,10.4 -10.2,10.4 H 393 v -20.5 z m -3.9,16.3 h 3.9 c 4.5,0 5.7,-3.3 5.7,-6.2 0,-2.9 -1.4,-5.9 -5.7,-5.9 h -3.9 z"
         class="st3"
         inkscape:connector-curvature="0"
         style="fill:#51545d" /></g></g></svg>